<svg width="15" height="15" viewBox="0 0 15 15" fill="none" xmlns="http://www.w3.org/2000/svg">
<path d="M2.97808 6.51131C4.16109 8.83627 6.06295 10.7381 8.39202 11.9211L10.1994 10.1097C10.4253 9.88373 10.7498 9.81801 11.0333 9.90838C11.9534 10.2123 12.9433 10.3767 13.9662 10.3767C14.4221 10.3767 14.7877 10.7422 14.7877 11.1982V14.0736C14.7877 14.5295 14.4221 14.8951 13.9662 14.8951C6.25191 14.8951 0 8.64321 0 0.92896C0 0.473006 0.369692 0.107422 0.821538 0.107422H3.69692C4.15288 0.107422 4.51846 0.473006 4.51846 0.92896C4.51846 1.95178 4.68277 2.94173 4.98674 3.86185C5.07711 4.14528 5.01138 4.46979 4.78546 4.69571L2.97808 6.51131Z" fill="#0047FF"/>
</svg>
