<svg width="26" height="26" viewBox="0 0 26 26" fill="none" xmlns="http://www.w3.org/2000/svg">
<g clip-path="url(#clip0_1_364)">
<path d="M7.17708 11.6946C8.73708 14.7604 11.245 17.2683 14.3163 18.8283L16.6996 16.4396C16.9975 16.1417 17.4254 16.055 17.7992 16.1742C19.0125 16.575 20.3179 16.7917 21.6667 16.7917C22.2679 16.7917 22.75 17.2738 22.75 17.875V21.6667C22.75 22.2679 22.2679 22.75 21.6667 22.75C11.4942 22.75 3.25 14.5058 3.25 4.33333C3.25 3.73208 3.7375 3.25 4.33333 3.25H8.125C8.72625 3.25 9.20833 3.73208 9.20833 4.33333C9.20833 5.68208 9.425 6.9875 9.82583 8.20083C9.945 8.57458 9.85833 9.0025 9.56042 9.30042L7.17708 11.6946Z" fill="white"/>
</g>
<defs>
<clipPath id="clip0_1_364">
<rect width="26" height="26" fill="white"/>
</clipPath>
</defs>
</svg>
