<svg width="108" height="67" viewBox="0 0 108 67" fill="none" xmlns="http://www.w3.org/2000/svg">
  <path d="M0 66.5H107.5" stroke="#0047FF"/>
  <path d="M8.74866 24.1331C8.11895 21.7375 9.54358 19.2835 11.9361 18.6424L78.6079 0.777729C81.0085 0.134492 83.476 1.55911 84.1192 3.95971L95.501 46.4369C96.1464 48.8458 94.7098 51.3202 92.2979 51.9539L37.4976 66.3528C37.1244 66.4508 36.74 66.5005 36.3541 66.5005L25.5 66.5005L19.8856 66.5004L8.74866 24.1331Z" stroke="#0047FF"/>
  <rect x="18.3253" y="36.5996" width="28" height="28" rx="1.5" transform="rotate(-15 18.3253 36.5996)" stroke="#0047FF"/>
  <path d="M31.3936 56.3924C29.1936 48.1817 42.2078 44.5914 44.4336 52.8983" stroke="#0047FF"/>
  <rect x="57.5679" y="47.8262" width="31" height="6" transform="rotate(-15 57.5679 47.8262)" stroke="#0047FF"/>
  <path d="M18.4982 28.5293L14.9017 25.0499L15.8042 24.8081L18.718 27.6671L19.682 23.7691L20.5615 23.5334L19.2969 28.512C19.2002 28.926 19.0436 29.2494 18.8273 29.4822C18.6147 29.7086 18.3198 29.8723 17.9424 29.9734L17.3688 30.1271L17.1967 29.4847L17.7168 29.3453C18.1043 29.2415 18.3648 28.9695 18.4982 28.5293ZM22.7362 29.9842L21.9866 30.185L21.4743 28.2729L22.025 28.1253C22.1544 27.9759 22.2158 27.7463 22.2093 27.4366C22.2079 27.1254 22.121 26.5667 21.9487 25.7603L21.7215 24.6981L24.9491 23.8333L25.8262 27.1068L26.5681 26.908L27.0805 28.8201L26.3309 29.0209L26.0071 27.8125L22.4124 28.7757L22.7362 29.9842ZM22.9198 27.8856L25.0767 27.3076L24.3881 24.7378L22.606 25.2153L22.6993 25.6248C22.9353 26.7092 23.0088 27.4628 22.9198 27.8856ZM26.8733 23.7768C27.1122 23.363 27.5861 23.0611 28.2948 22.8712C29.0036 22.6813 29.5623 22.7065 29.9709 22.9468C30.3847 23.1856 30.6872 23.662 30.8785 24.3759C31.0712 25.0948 31.0506 25.6605 30.8168 26.0729C30.5816 26.4802 30.1071 26.7795 29.3933 26.9708C28.6794 27.162 28.1188 27.1401 27.7115 26.9049C27.3029 26.6647 27.0022 26.1851 26.8096 25.4661C26.6183 24.7523 26.6396 24.1892 26.8733 23.7768ZM27.5591 25.2653C27.6848 25.7344 27.8783 26.0487 28.1397 26.2082C28.401 26.3677 28.756 26.3873 29.2047 26.2671C29.6534 26.1469 29.9511 25.9524 30.0977 25.6836C30.2442 25.4148 30.2547 25.0458 30.129 24.5767C30.0019 24.1025 29.8084 23.7882 29.5484 23.6338C29.2922 23.4729 28.9372 23.4533 28.4834 23.5749C28.0295 23.6965 27.7294 23.8917 27.5828 24.1605C27.4399 24.4228 27.4321 24.7911 27.5591 25.2653ZM34.1125 25.7063C33.419 25.8921 32.8712 25.8667 32.469 25.6302C32.0705 25.3872 31.775 24.9062 31.5823 24.1873C31.3911 23.4734 31.4072 22.9117 31.6308 22.502C31.8595 22.091 32.3206 21.7925 33.014 21.6067C33.6208 21.4441 34.1125 21.4436 34.4891 21.605C34.8644 21.7613 35.158 22.0925 35.3701 22.5985L34.6283 22.7973C34.4868 22.5346 34.3022 22.3655 34.0742 22.2899C33.8501 22.2079 33.5646 22.2134 33.2179 22.3063C32.7794 22.4238 32.4894 22.6162 32.3479 22.8837C32.2102 23.1447 32.2048 23.5122 32.3319 23.9864C32.4576 24.4555 32.6485 24.7705 32.9048 24.9314C33.161 25.0923 33.5058 25.1146 33.9393 24.9985C34.286 24.9056 34.5366 24.7701 34.6911 24.5921C34.8493 24.4076 34.924 24.1663 34.9152 23.8681L35.6571 23.6693C35.7278 24.2187 35.6397 24.6549 35.3929 24.9779C35.1461 25.3009 34.7193 25.5437 34.1125 25.7063ZM39.5419 20.6773L37.951 21.1036L38.8282 24.3771L38.0786 24.578L37.2015 21.3044L35.6106 21.7307L35.4221 21.0271L39.3534 19.9737L39.5419 20.6773ZM40.4074 20.1503C40.6463 19.7366 41.1201 19.4347 41.8289 19.2448C42.5376 19.0549 43.0963 19.0801 43.505 19.3203C43.9188 19.5592 44.2213 20.0356 44.4126 20.7494C44.6052 21.4684 44.5846 22.0341 44.3508 22.4465C44.1157 22.8538 43.6412 23.1531 42.9273 23.3443C42.2135 23.5356 41.6529 23.5137 41.2456 23.2785C40.8369 23.0382 40.5363 22.5586 40.3436 21.8397C40.1523 21.1259 40.1736 20.5627 40.4074 20.1503ZM41.0932 21.6389C41.2189 22.108 41.4124 22.4223 41.6737 22.5818C41.935 22.7413 42.2901 22.7609 42.7388 22.6407C43.1875 22.5205 43.4851 22.3259 43.6317 22.0571C43.7783 21.7883 43.7887 21.4194 43.663 20.9503C43.5359 20.4761 43.3424 20.1618 43.0825 20.0074C42.8262 19.8465 42.4712 19.8269 42.0174 19.9485C41.5636 20.07 41.2634 20.2652 41.1168 20.5341C40.974 20.7964 40.9661 21.1647 41.0932 21.6389ZM45.8634 22.492L44.7977 18.5149L46.8322 17.9697C47.337 17.8345 47.7266 17.8203 48.0012 17.927C48.2757 18.0338 48.4628 18.2733 48.5626 18.6455C48.6705 19.0484 48.6163 19.3662 48.4 19.599C48.8261 19.6597 49.1034 19.9297 49.2318 20.409C49.3357 20.7965 49.2935 21.1084 49.1054 21.3446C48.9173 21.5808 48.5607 21.7693 48.0355 21.91L45.8634 22.492ZM47.5015 20.1923L46.1477 20.555L46.4367 21.6334L47.7904 21.2707C48.076 21.1942 48.2715 21.0981 48.3772 20.9823C48.4814 20.8615 48.5076 20.7042 48.4557 20.5104C48.4051 20.3218 48.3052 20.2037 48.1558 20.1563C48.0051 20.1038 47.787 20.1158 47.5015 20.1923ZM45.9961 19.989L47.1892 19.6693C47.4696 19.5942 47.6601 19.4994 47.7606 19.3851C47.8611 19.2707 47.8875 19.1243 47.8397 18.9458C47.7932 18.7724 47.6953 18.662 47.546 18.6146C47.4018 18.5658 47.1945 18.5776 46.9243 18.6501L45.7235 18.9718L45.9961 19.989ZM50.6022 20.7632C50.1986 20.5216 49.9012 20.0439 49.7099 19.33C49.5186 18.6162 49.5373 18.0537 49.766 17.6427C49.9998 17.2303 50.4736 16.9284 51.1875 16.7372C51.8962 16.5473 52.4498 16.5738 52.8483 16.8168C53.2519 17.0584 53.5493 17.5361 53.7406 18.25C53.7474 18.2755 53.7551 18.3144 53.7637 18.3668C53.7773 18.4178 53.7876 18.456 53.7944 18.4815L50.5362 19.3545C50.6683 19.7454 50.8616 20.0079 51.1161 20.1419C51.3757 20.2745 51.7094 20.2862 52.1173 20.1769C52.7139 20.017 53.0391 19.7113 53.093 19.2597L53.8731 19.0506C53.8918 19.5484 53.7606 19.936 53.4797 20.2135C53.204 20.4896 52.806 20.6973 52.2859 20.8367C51.5721 21.028 51.0108 21.0035 50.6022 20.7632ZM51.3714 17.3929C50.9889 17.4953 50.7158 17.6587 50.5518 17.883C50.3915 18.1008 50.3409 18.4013 50.3998 18.7845L52.9009 18.1143C52.759 17.7479 52.5642 17.5105 52.3165 17.4019C52.0739 17.2921 51.7589 17.289 51.3714 17.3929ZM55.7046 21.9045L54.1266 16.0152L54.8762 15.8144L55.0258 16.3727C55.1955 15.8845 55.6348 15.5455 56.3436 15.3556C56.9809 15.1848 57.4861 15.2243 57.8591 15.4742C58.2358 15.7175 58.5205 16.1987 58.7131 16.9176C58.9044 17.6315 58.8984 18.1905 58.6952 18.5947C58.4971 18.9975 58.0794 19.2843 57.442 19.4551C56.7333 19.645 56.1833 19.5711 55.7922 19.2332L56.4542 21.7036L55.7046 21.9045ZM55.9993 18.7514C56.2592 18.9059 56.611 18.9236 57.0546 18.8048C57.4982 18.6859 57.7915 18.4953 57.9343 18.233C58.0809 17.9642 58.0906 17.5926 57.9636 17.1184C57.8379 16.6493 57.6443 16.335 57.383 16.1755C57.1268 16.0147 56.7768 15.9937 56.3332 16.1125C55.8896 16.2314 55.5945 16.4252 55.448 16.694C55.3065 16.9615 55.2986 17.3297 55.4243 17.7988C55.5514 18.273 55.743 18.5906 55.9993 18.7514ZM60.312 18.1615C59.9084 17.9199 59.611 17.4421 59.4197 16.7283C59.2285 16.0144 59.2472 15.452 59.4759 15.0409C59.7097 14.6285 60.1835 14.3267 60.8973 14.1354C61.6061 13.9455 62.1597 13.9721 62.5582 14.215C62.9617 14.4567 63.2592 14.9344 63.4504 15.6482C63.4573 15.6737 63.465 15.7127 63.4735 15.765C63.4872 15.816 63.4974 15.8543 63.5043 15.8797L60.2461 16.7528C60.3781 17.1437 60.5714 17.4061 60.8259 17.5401C61.0855 17.6728 61.4193 17.6844 61.8272 17.5751C62.4238 17.4153 62.749 17.1095 62.8029 16.6579L63.583 16.4489C63.6016 16.9467 63.4705 17.3343 63.1896 17.6118C62.9138 17.8879 62.5159 18.0956 61.9958 18.2349C61.2819 18.4262 60.7207 18.4017 60.312 18.1615ZM61.0812 14.7911C60.6988 14.8936 60.4256 15.057 60.2616 15.2813C60.1014 15.4991 60.0508 15.7996 60.1097 16.1827L62.6107 15.5126C62.4688 15.1462 62.274 14.9087 62.0264 14.8002C61.7838 14.6903 61.4687 14.6873 61.0812 14.7911ZM65.6517 17.1898L64.9022 17.3906L63.8365 13.4135L64.586 13.2126L65.0246 14.8494L67.342 14.2284L66.9035 12.5917L67.653 12.3908L68.7187 16.368L67.9692 16.5688L67.5306 14.9321L65.2131 15.553L65.6517 17.1898ZM70.5119 15.8875L69.8542 16.0637L68.7885 12.0866L69.538 11.8857L70.282 14.6621L71.9473 11.2402L72.605 11.0639L73.6707 15.0411L72.9212 15.2419L72.1773 12.4656L70.5119 15.8875ZM74.9515 14.2388C74.5479 13.9972 74.2505 13.5195 74.0592 12.8056C73.8679 12.0918 73.8866 11.5293 74.1153 11.1183C74.3491 10.7059 74.8229 10.4041 75.5368 10.2128C76.2455 10.0229 76.7992 10.0494 77.1976 10.2924C77.6012 10.534 77.8986 11.0118 78.0899 11.7256C78.0967 11.7511 78.1044 11.79 78.113 11.8424C78.1267 11.8934 78.1369 11.9316 78.1437 11.9571L74.8855 12.8301C75.0176 13.221 75.2109 13.4835 75.4654 13.6175C75.725 13.7501 76.0588 13.7618 76.4667 13.6525C77.0632 13.4927 77.3885 13.1869 77.4423 12.7353L78.2225 12.5262C78.2411 13.024 78.1099 13.4117 77.8291 13.6891C77.5533 13.9652 77.1554 14.173 76.6353 14.3123C75.9214 14.5036 75.3602 14.4791 74.9515 14.2388ZM75.7207 10.8685C75.3383 10.971 75.0651 11.1343 74.9011 11.3586C74.7409 11.5764 74.6902 11.8769 74.7492 12.2601L77.2502 11.5899C77.1083 11.2235 76.9135 10.9861 76.6658 10.8776C76.4233 10.7677 76.1082 10.7647 75.7207 10.8685Z" fill="#0047FF"/>
  <path d="M52.2622 28.0244L82.2059 20.001" stroke="#0047FF"/>
  <path d="M54.2983 33.6904L84.242 25.667" stroke="#0047FF"/>
  <path d="M55.8511 39.4863L75.1696 34.3099" stroke="#0047FF"/>
  <rect x="29.2789" y="38.8418" width="8" height="8" rx="4" transform="rotate(-15 29.2789 38.8418)" stroke="#0047FF"/>
</svg>
