<svg width="111" height="70" viewBox="0 0 111 70" fill="none" xmlns="http://www.w3.org/2000/svg">
  <path d="M3 66.5H110.5" stroke="white"/>
  <g opacity="0.5" filter="url(#filter0_f_0_1)">
    <path d="M4.5 66C4.5 65.4477 4.94772 65 5.5 65H96.5C97.0523 65 97.5 65.4477 97.5 66H4.5Z" fill="#0047FF"/>
  </g>
  <path d="M11.7487 24.1331C11.119 21.7375 12.5436 19.2835 14.9361 18.6424L81.6079 0.777729C84.0085 0.134492 86.476 1.55911 87.1192 3.95971L98.501 46.4369C99.1464 48.8458 97.7098 51.3202 95.2979 51.9539L40.4976 66.3528C40.1244 66.4508 39.74 66.5005 39.3541 66.5005L28.5 66.5005L22.8856 66.5004L11.7487 24.1331Z" stroke="white"/>
  <rect x="21.3253" y="36.5996" width="28" height="28" rx="1.5" transform="rotate(-15 21.3253 36.5996)" stroke="white"/>
  <path d="M34.3936 56.3924C32.1936 48.1817 45.2078 44.5914 47.4336 52.8983" stroke="white"/>
  <rect x="60.5679" y="47.8262" width="31" height="6" transform="rotate(-15 60.5679 47.8262)" stroke="white"/>
  <path d="M21.4982 28.5293L17.9017 25.0499L18.8042 24.8081L21.718 27.6671L22.682 23.7691L23.5615 23.5334L22.2969 28.512C22.2002 28.926 22.0436 29.2494 21.8273 29.4822C21.6147 29.7086 21.3198 29.8723 20.9424 29.9734L20.3688 30.1271L20.1967 29.4847L20.7168 29.3453C21.1043 29.2415 21.3648 28.9695 21.4982 28.5293ZM25.7362 29.9842L24.9866 30.185L24.4743 28.2729L25.025 28.1253C25.1544 27.9759 25.2158 27.7463 25.2093 27.4366C25.2079 27.1254 25.121 26.5667 24.9487 25.7603L24.7215 24.6981L27.9491 23.8333L28.8262 27.1068L29.5681 26.908L30.0805 28.8201L29.3309 29.0209L29.0071 27.8125L25.4124 28.7757L25.7362 29.9842ZM25.9198 27.8856L28.0767 27.3076L27.3881 24.7378L25.606 25.2153L25.6993 25.6248C25.9353 26.7092 26.0088 27.4628 25.9198 27.8856ZM29.8733 23.7768C30.1122 23.363 30.5861 23.0611 31.2948 22.8712C32.0036 22.6813 32.5623 22.7065 32.9709 22.9468C33.3847 23.1856 33.6872 23.662 33.8785 24.3759C34.0712 25.0948 34.0506 25.6605 33.8168 26.0729C33.5816 26.4802 33.1071 26.7795 32.3933 26.9708C31.6794 27.162 31.1188 27.1401 30.7115 26.9049C30.3029 26.6647 30.0022 26.1851 29.8096 25.4661C29.6183 24.7523 29.6396 24.1892 29.8733 23.7768ZM30.5591 25.2653C30.6848 25.7344 30.8783 26.0487 31.1397 26.2082C31.401 26.3677 31.756 26.3873 32.2047 26.2671C32.6534 26.1469 32.9511 25.9524 33.0977 25.6836C33.2442 25.4148 33.2547 25.0458 33.129 24.5767C33.0019 24.1025 32.8084 23.7882 32.5484 23.6338C32.2922 23.4729 31.9372 23.4533 31.4834 23.5749C31.0295 23.6965 30.7294 23.8917 30.5828 24.1605C30.4399 24.4228 30.4321 24.7911 30.5591 25.2653ZM37.1125 25.7063C36.419 25.8921 35.8712 25.8667 35.469 25.6302C35.0705 25.3872 34.775 24.9062 34.5823 24.1873C34.3911 23.4734 34.4072 22.9117 34.6308 22.502C34.8595 22.091 35.3206 21.7925 36.014 21.6067C36.6208 21.4441 37.1125 21.4436 37.4891 21.605C37.8644 21.7613 38.158 22.0925 38.3701 22.5985L37.6283 22.7973C37.4868 22.5346 37.3022 22.3655 37.0742 22.2899C36.8501 22.2079 36.5646 22.2134 36.2179 22.3063C35.7794 22.4238 35.4894 22.6162 35.3479 22.8837C35.2102 23.1447 35.2048 23.5122 35.3319 23.9864C35.4576 24.4555 35.6485 24.7705 35.9048 24.9314C36.161 25.0923 36.5058 25.1146 36.9393 24.9985C37.286 24.9056 37.5366 24.7701 37.6911 24.5921C37.8493 24.4076 37.924 24.1663 37.9152 23.8681L38.6571 23.6693C38.7278 24.2187 38.6397 24.6549 38.3929 24.9779C38.1461 25.3009 37.7193 25.5437 37.1125 25.7063ZM42.5419 20.6773L40.951 21.1036L41.8282 24.3771L41.0786 24.578L40.2015 21.3044L38.6106 21.7307L38.4221 21.0271L42.3534 19.9737L42.5419 20.6773ZM43.4074 20.1503C43.6463 19.7366 44.1201 19.4347 44.8289 19.2448C45.5376 19.0549 46.0963 19.0801 46.505 19.3203C46.9188 19.5592 47.2213 20.0356 47.4126 20.7494C47.6052 21.4684 47.5846 22.0341 47.3508 22.4465C47.1157 22.8538 46.6412 23.1531 45.9273 23.3443C45.2135 23.5356 44.6529 23.5137 44.2456 23.2785C43.8369 23.0382 43.5363 22.5586 43.3436 21.8397C43.1523 21.1259 43.1736 20.5627 43.4074 20.1503ZM44.0932 21.6389C44.2189 22.108 44.4124 22.4223 44.6737 22.5818C44.935 22.7413 45.2901 22.7609 45.7388 22.6407C46.1875 22.5205 46.4851 22.3259 46.6317 22.0571C46.7783 21.7883 46.7887 21.4194 46.663 20.9503C46.5359 20.4761 46.3424 20.1618 46.0825 20.0074C45.8262 19.8465 45.4712 19.8269 45.0174 19.9485C44.5636 20.07 44.2634 20.2652 44.1168 20.5341C43.974 20.7964 43.9661 21.1647 44.0932 21.6389ZM48.8634 22.492L47.7977 18.5149L49.8322 17.9697C50.337 17.8345 50.7266 17.8203 51.0012 17.927C51.2757 18.0338 51.4628 18.2733 51.5626 18.6455C51.6705 19.0484 51.6163 19.3662 51.4 19.599C51.8261 19.6597 52.1034 19.9297 52.2318 20.409C52.3357 20.7965 52.2935 21.1084 52.1054 21.3446C51.9173 21.5808 51.5607 21.7693 51.0355 21.91L48.8634 22.492ZM50.5015 20.1923L49.1477 20.555L49.4367 21.6334L50.7904 21.2707C51.076 21.1942 51.2715 21.0981 51.3772 20.9823C51.4814 20.8615 51.5076 20.7042 51.4557 20.5104C51.4051 20.3218 51.3052 20.2037 51.1558 20.1563C51.0051 20.1038 50.787 20.1158 50.5015 20.1923ZM48.9961 19.989L50.1892 19.6693C50.4696 19.5942 50.6601 19.4994 50.7606 19.3851C50.8611 19.2707 50.8875 19.1243 50.8397 18.9458C50.7932 18.7724 50.6953 18.662 50.546 18.6146C50.4018 18.5658 50.1945 18.5776 49.9243 18.6501L48.7235 18.9718L48.9961 19.989ZM53.6022 20.7632C53.1986 20.5216 52.9012 20.0439 52.7099 19.33C52.5186 18.6162 52.5373 18.0537 52.766 17.6427C52.9998 17.2303 53.4736 16.9284 54.1875 16.7372C54.8962 16.5473 55.4498 16.5738 55.8483 16.8168C56.2519 17.0584 56.5493 17.5361 56.7406 18.25C56.7474 18.2755 56.7551 18.3144 56.7637 18.3668C56.7773 18.4178 56.7876 18.456 56.7944 18.4815L53.5362 19.3545C53.6683 19.7454 53.8616 20.0079 54.1161 20.1419C54.3757 20.2745 54.7094 20.2862 55.1173 20.1769C55.7139 20.017 56.0391 19.7113 56.093 19.2597L56.8731 19.0506C56.8918 19.5484 56.7606 19.936 56.4797 20.2135C56.204 20.4896 55.806 20.6973 55.2859 20.8367C54.5721 21.028 54.0108 21.0035 53.6022 20.7632ZM54.3714 17.3929C53.9889 17.4953 53.7158 17.6587 53.5518 17.883C53.3915 18.1008 53.3409 18.4013 53.3998 18.7845L55.9009 18.1143C55.759 17.7479 55.5642 17.5105 55.3165 17.4019C55.0739 17.2921 54.7589 17.289 54.3714 17.3929ZM58.7046 21.9045L57.1266 16.0152L57.8762 15.8144L58.0258 16.3727C58.1955 15.8845 58.6348 15.5455 59.3436 15.3556C59.9809 15.1848 60.4861 15.2243 60.8591 15.4742C61.2358 15.7175 61.5205 16.1987 61.7131 16.9176C61.9044 17.6315 61.8984 18.1905 61.6952 18.5947C61.4971 18.9975 61.0794 19.2843 60.442 19.4551C59.7333 19.645 59.1833 19.5711 58.7922 19.2332L59.4542 21.7036L58.7046 21.9045ZM58.9993 18.7514C59.2592 18.9059 59.611 18.9236 60.0546 18.8048C60.4982 18.6859 60.7915 18.4953 60.9343 18.233C61.0809 17.9642 61.0906 17.5926 60.9636 17.1184C60.8379 16.6493 60.6443 16.335 60.383 16.1755C60.1268 16.0147 59.7768 15.9937 59.3332 16.1125C58.8896 16.2314 58.5945 16.4252 58.448 16.694C58.3065 16.9615 58.2986 17.3297 58.4243 17.7988C58.5514 18.273 58.743 18.5906 58.9993 18.7514ZM63.312 18.1615C62.9084 17.9199 62.611 17.4421 62.4197 16.7283C62.2285 16.0144 62.2472 15.452 62.4759 15.0409C62.7097 14.6285 63.1835 14.3267 63.8973 14.1354C64.6061 13.9455 65.1597 13.9721 65.5582 14.215C65.9617 14.4567 66.2592 14.9344 66.4504 15.6482C66.4573 15.6737 66.465 15.7127 66.4735 15.765C66.4872 15.816 66.4974 15.8543 66.5043 15.8797L63.2461 16.7528C63.3781 17.1437 63.5714 17.4061 63.8259 17.5401C64.0855 17.6728 64.4193 17.6844 64.8272 17.5751C65.4238 17.4153 65.749 17.1095 65.8029 16.6579L66.583 16.4489C66.6016 16.9467 66.4705 17.3343 66.1896 17.6118C65.9138 17.8879 65.5159 18.0956 64.9958 18.2349C64.2819 18.4262 63.7207 18.4017 63.312 18.1615ZM64.0812 14.7911C63.6988 14.8936 63.4256 15.057 63.2616 15.2813C63.1014 15.4991 63.0508 15.7996 63.1097 16.1827L65.6107 15.5126C65.4688 15.1462 65.274 14.9087 65.0264 14.8002C64.7838 14.6903 64.4687 14.6873 64.0812 14.7911ZM68.6517 17.1898L67.9022 17.3906L66.8365 13.4135L67.586 13.2126L68.0246 14.8494L70.342 14.2284L69.9035 12.5917L70.653 12.3908L71.7187 16.368L70.9692 16.5688L70.5306 14.9321L68.2131 15.553L68.6517 17.1898ZM73.5119 15.8875L72.8542 16.0637L71.7885 12.0866L72.538 11.8857L73.282 14.6621L74.9473 11.2402L75.605 11.0639L76.6707 15.0411L75.9212 15.2419L75.1773 12.4656L73.5119 15.8875ZM77.9515 14.2388C77.5479 13.9972 77.2505 13.5195 77.0592 12.8056C76.8679 12.0918 76.8866 11.5293 77.1153 11.1183C77.3491 10.7059 77.8229 10.4041 78.5368 10.2128C79.2455 10.0229 79.7992 10.0494 80.1976 10.2924C80.6012 10.534 80.8986 11.0118 81.0899 11.7256C81.0967 11.7511 81.1044 11.79 81.113 11.8424C81.1267 11.8934 81.1369 11.9316 81.1437 11.9571L77.8855 12.8301C78.0176 13.221 78.2109 13.4835 78.4654 13.6175C78.725 13.7501 79.0588 13.7618 79.4667 13.6525C80.0632 13.4927 80.3885 13.1869 80.4423 12.7353L81.2225 12.5262C81.2411 13.024 81.1099 13.4117 80.8291 13.6891C80.5533 13.9652 80.1554 14.173 79.6353 14.3123C78.9214 14.5036 78.3602 14.4791 77.9515 14.2388ZM78.7207 10.8685C78.3383 10.971 78.0651 11.1343 77.9011 11.3586C77.7409 11.5764 77.6902 11.8769 77.7492 12.2601L80.2502 11.5899C80.1083 11.2235 79.9135 10.9861 79.6658 10.8776C79.4233 10.7677 79.1082 10.7647 78.7207 10.8685Z" fill="white"/>
  <path d="M55.2622 28.0244L85.2059 20.001" stroke="white"/>
  <path d="M57.2983 33.6904L87.242 25.667" stroke="white"/>
  <path d="M58.8511 39.4863L78.1696 34.3099" stroke="white"/>
  <rect x="32.2789" y="38.8418" width="8" height="8" rx="4" transform="rotate(-15 32.2789 38.8418)" stroke="white"/>
  <defs>
    <filter id="filter0_f_0_1" x="0.5" y="61" width="101" height="9" filterUnits="userSpaceOnUse" color-interpolation-filters="sRGB">
      <feFlood flood-opacity="0" result="BackgroundImageFix"/>
      <feBlend mode="normal" in="SourceGraphic" in2="BackgroundImageFix" result="shape"/>
      <feGaussianBlur stdDeviation="2" result="effect1_foregroundBlur_0_1"/>
    </filter>
  </defs>
</svg>
