<svg width="20" height="20" viewBox="0 0 20 20" fill="none" xmlns="http://www.w3.org/2000/svg">
<circle cx="10" cy="10" r="10" fill="#0047FF"/>
<path opacity="0.9" d="M7.81333 7.44H6.29333C6.44444 6.42667 6.8 5.69333 7.36 5.24C7.92889 4.77778 8.78222 4.54667 9.92 4.54667C11.0133 4.54667 11.8311 4.76 12.3733 5.18667C12.9156 5.61333 13.1867 6.28 13.1867 7.18667C13.1867 8.27111 12.7644 8.99111 11.92 9.34667L10.8267 9.81333C10.5333 9.95556 10.3867 10.1911 10.3867 10.52V10.9467H8.88V10.32C8.88 9.48444 9.22222 8.92 9.90667 8.62667L11.04 8.13333C11.4578 7.94667 11.6667 7.63555 11.6667 7.2C11.6667 6.38222 11.0756 5.97333 9.89333 5.97333C9.27111 5.97333 8.8 6.08889 8.48 6.32C8.16 6.54222 7.93778 6.91556 7.81333 7.44ZM8.58667 13.04C8.58667 12.6667 8.67111 12.3956 8.84 12.2267C9.00889 12.0578 9.28444 11.9733 9.66667 11.9733C10.04 11.9733 10.3111 12.0578 10.48 12.2267C10.6489 12.3956 10.7333 12.6667 10.7333 13.04C10.7333 13.4222 10.6489 13.6978 10.48 13.8667C10.3111 14.0356 10.04 14.12 9.66667 14.12C9.28444 14.12 9.00889 14.0356 8.84 13.8667C8.67111 13.6978 8.58667 13.4222 8.58667 13.04Z" fill="white"/>
</svg>
