<svg width="34" height="34" viewBox="0 0 34 34" fill="none" xmlns="http://www.w3.org/2000/svg">
<rect x="6" y="9" width="22" height="15" fill="white"/>
<path d="M21.3535 2.83301H12.6616C4.72235 2.83301 2.8335 4.72186 2.8335 12.6463V21.3382C2.8335 29.2774 4.70766 31.1663 12.6468 31.1663H21.3387C29.278 31.1663 31.1668 29.2922 31.1668 21.3529V12.6611C31.1668 4.72186 29.2927 2.83301 21.3535 2.83301ZM25.7067 23.05H23.6408C22.8587 23.05 22.6226 22.4154 21.2207 21.0135C19.9958 19.833 19.4793 19.6854 19.1694 19.6854C18.7415 19.6854 18.6234 19.8034 18.6234 20.3937V22.2531C18.6234 22.7549 18.4611 23.05 17.1478 23.05C15.8733 22.9644 14.6374 22.5772 13.5419 21.9204C12.4464 21.2636 11.5226 20.3559 10.8465 19.2722C9.24158 17.2746 8.1249 14.93 7.58527 12.425C7.58527 12.1151 7.70329 11.8347 8.2936 11.8347H10.3595C10.8908 11.8347 11.0827 12.0708 11.2892 12.6169C12.2927 15.5682 14.0045 18.1359 14.6981 18.1359C14.9637 18.1359 15.0817 18.0179 15.0817 17.3538V14.3139C14.9932 12.9268 14.2554 12.8087 14.2554 12.307C14.2651 12.1746 14.326 12.0512 14.4252 11.9631C14.5244 11.8749 14.654 11.8288 14.7866 11.8347H18.0332C18.4759 11.8347 18.6234 12.056 18.6234 12.5873V16.6898C18.6234 17.1325 18.8153 17.28 18.9481 17.28C19.2137 17.28 19.4203 17.1325 19.9072 16.6455C20.9537 15.3693 21.8088 13.9476 22.4455 12.425C22.5105 12.2418 22.6336 12.0849 22.7962 11.9783C22.9588 11.8717 23.1518 11.8213 23.3457 11.8347H25.4116C26.0314 11.8347 26.1642 12.1446 26.0314 12.5873C25.2797 14.2707 24.3496 15.8687 23.2571 17.3538C23.0358 17.6932 22.9472 17.8703 23.2571 18.2687C23.4637 18.5786 24.1868 19.1837 24.6738 19.7592C25.3821 20.4657 25.9703 21.2832 26.4151 22.1794C26.5921 22.7549 26.297 23.05 25.7067 23.05Z" fill="#6563FF"/>
</svg>
