<svg width="34" height="34" viewBox="0 0 34 34" fill="none" xmlns="http://www.w3.org/2000/svg">
<path d="M17.6165 20.3014L4.13335 11.7209C3.4363 11.26 2.94816 10.5437 2.77405 9.7263C2.59995 8.90894 2.75381 8.0559 3.20249 7.35087C3.65118 6.64584 4.3588 6.14521 5.17298 5.9568C5.98716 5.76839 6.84277 5.90726 7.55556 6.34351L17.4474 12.6381L26.329 6.42086C27.0219 5.9513 27.8718 5.77315 28.6949 5.9249C29.5181 6.07664 30.2486 6.5461 30.7285 7.23187C31.2085 7.91765 31.3994 8.7647 31.2601 9.59008C31.1208 10.4155 30.6624 11.1529 29.984 11.6432L17.6165 20.3014Z" fill="#EA4435"/>
<path d="M29.2188 28.1572H24.9688L24.9687 9.03223C24.9687 8.18685 25.3046 7.37609 25.9023 6.77832C26.5001 6.18055 27.3109 5.84473 28.1562 5.84473C29.0016 5.84473 29.8124 6.18055 30.4102 6.77832C31.0079 7.37609 31.3437 8.18685 31.3437 9.03223L31.3438 26.0322C31.3438 26.5958 31.1199 27.1363 30.7214 27.5348C30.3228 27.9333 29.7823 28.1572 29.2188 28.1572Z" fill="#00AC47"/>
<path d="M31.2972 8.56936C31.2878 8.50561 31.2886 8.44048 31.2753 8.37683C31.2549 8.27929 31.2169 8.18919 31.1878 8.09506C31.1596 7.98731 31.1256 7.88116 31.086 7.77705C31.0648 7.72658 31.0321 7.68228 31.0079 7.63319C30.9418 7.49156 30.8653 7.35501 30.7791 7.22466C30.7366 7.16293 30.6835 7.11033 30.6365 7.05189C30.5559 6.94569 30.4688 6.84459 30.3757 6.74919C30.305 6.68044 30.2245 6.62296 30.1476 6.56102C30.066 6.49102 29.9809 6.42517 29.8926 6.36371C29.8084 6.30868 29.7162 6.26628 29.627 6.21932C29.5331 6.17034 29.4411 6.117 29.3433 6.0779C29.2489 6.03986 29.1481 6.01564 29.0494 5.98663C28.9507 5.95763 28.8526 5.92288 28.7512 5.90408C28.6256 5.8839 28.499 5.87113 28.3719 5.86583C28.2912 5.86019 28.2113 5.84606 28.1304 5.8467C27.9801 5.85108 27.8303 5.86617 27.6821 5.89186C27.6223 5.90078 27.562 5.90004 27.5027 5.91236C27.3022 5.97362 27.1022 6.03667 26.9029 6.10149C26.8482 6.12486 26.8002 6.15961 26.7472 6.18596C26.2077 6.43772 25.7526 6.84037 25.437 7.34524C25.1213 7.85011 24.9587 8.43559 24.9687 9.03091V15.153L29.9837 11.6422C30.4762 11.3117 30.8623 10.8455 31.0954 10.3001C31.3284 9.75474 31.3987 9.1537 31.2972 8.56936Z" fill="#FFBA00"/>
<path d="M5.84375 5.84375C6.68913 5.84375 7.49988 6.17958 8.09765 6.77735C8.69543 7.37512 9.03125 8.18587 9.03125 9.03125V28.1562H4.78125C4.21766 28.1562 3.67716 27.9324 3.27865 27.5339C2.88013 27.1353 2.65625 26.5948 2.65625 26.0312V9.03125C2.65625 8.18587 2.99208 7.37512 3.58985 6.77735C4.18762 6.17958 4.99837 5.84375 5.84375 5.84375Z" fill="#4285F4"/>
<path d="M2.70287 8.5701C2.71222 8.50635 2.71148 8.44122 2.72476 8.37758C2.74516 8.28004 2.78309 8.18994 2.8122 8.0958C2.84042 7.98809 2.8744 7.88197 2.91399 7.7779C2.93524 7.72743 2.96797 7.68313 2.99219 7.63404C3.05826 7.49235 3.13475 7.35576 3.22105 7.2254C3.26355 7.16367 3.31668 7.11108 3.36364 7.05264C3.4442 6.94643 3.53128 6.84533 3.62438 6.74993C3.69503 6.68119 3.77557 6.62371 3.8525 6.56176C3.93411 6.49174 4.01922 6.42588 4.1075 6.36446C4.19175 6.30942 4.28398 6.26703 4.37312 6.22006C4.46524 6.16796 4.55993 6.12051 4.65681 6.0779C4.75137 6.03986 4.8521 6.01564 4.9507 5.98663C5.0493 5.95763 5.14758 5.92288 5.24894 5.90408C5.37452 5.88391 5.50118 5.87114 5.62825 5.86583C5.709 5.86019 5.7888 5.84606 5.86976 5.8467C6.02007 5.85108 6.16987 5.86617 6.31803 5.89186C6.37785 5.90078 6.43809 5.90004 6.49759 5.91236C6.60044 5.93857 6.70186 5.97006 6.80147 6.00671C6.90162 6.03334 7.00038 6.06497 7.09737 6.10149C7.15198 6.12486 7.1999 6.15961 7.25303 6.18596C7.39076 6.25066 7.52363 6.32523 7.65062 6.40908C8.07629 6.70136 8.42443 7.09286 8.66496 7.54978C8.9055 8.00669 9.0312 8.51529 9.03123 9.03165V15.1538L4.01623 11.6432C3.52384 11.3126 3.13777 10.8464 2.90469 10.301C2.67162 9.75566 2.60152 9.15446 2.70287 8.5701Z" fill="#C52528"/>
</svg>
