<svg width="17" height="14" viewBox="0 0 17 14" fill="none" xmlns="http://www.w3.org/2000/svg">
<g id="Group 110">
<path id="Vector" d="M16.6328 3.82422L12.6641 6.78276V13.241H15.4422C16.0916 13.241 16.6328 12.7179 16.6328 12.0504V3.82422Z" fill="#0047FF"/>
<path id="Vector_2" d="M0 3.82422L3.95074 6.8008V13.2591H1.19063C0.541197 13.2591 0 12.7359 0 12.0685V3.82422Z" fill="#0047FF"/>
<path id="Vector_3" d="M12.664 1.83984L8.31637 5.10507L3.96875 1.83984V6.78278L8.31637 10.048L12.664 6.78278V1.83984Z" fill="#0047FF"/>
<path id="Vector_4" d="M0 2.27192V3.82335L3.95074 6.79994V1.83896L2.72402 0.918929C2.43539 0.702451 2.07459 0.576172 1.69575 0.576172C0.757676 0.576172 0 1.33385 0 2.27192Z" fill="#0047FF"/>
<path id="Vector_5" d="M16.6328 2.27192V3.82335L12.6641 6.7819V1.83896L13.9088 0.91893C14.1975 0.702451 14.5583 0.576172 14.9371 0.576172C15.8752 0.576172 16.6328 1.33385 16.6328 2.27192Z" fill="#0047FF"/>
</g>
</svg>
