<svg width="108" height="52" viewBox="0 0 108 52" fill="none" xmlns="http://www.w3.org/2000/svg">
  <path d="M39.2183 42.1228L53.4306 2.05291C53.7998 1.01189 54.943 0.467295 55.9841 0.836533L78.0525 8.6639C78.5252 8.83159 78.9177 9.17081 79.1521 9.61431L84.5827 19.8895C84.8446 20.3851 84.8866 20.9678 84.6983 21.4958L73.9998 51.5002L69.4998 51.5002L60.3385 51.5002C60.1143 51.5002 59.8916 51.4625 59.6799 51.3887L40.4446 44.6798C39.3978 44.3147 38.8477 43.1677 39.2183 42.1228Z" stroke="white"/>
  <path d="M79.2053 19.4434L57.0962 11.6016" stroke="white"/>
  <path d="M76.3298 27.5508L54.2207 19.709" stroke="white"/>
  <path d="M73.4548 35.6572L51.3457 27.8154" stroke="white"/>
  <g filter="url(#filter0_b_0_1)">
    <path d="M56.5863 8.53836L66.6888 46.2413C66.971 47.2947 66.3574 48.38 65.3093 48.6812L55.7705 51.4221C55.591 51.4737 55.405 51.4999 55.2182 51.4999L32.9998 51.4999L26.4998 51.4998L15.5147 10.3166C15.2303 9.25022 15.8634 8.15497 16.9295 7.86932L42.4757 1.02423C42.9603 0.894394 43.4759 0.951384 43.9204 1.1839L55.5815 7.28381C56.0771 7.54308 56.4416 7.99806 56.5863 8.53836Z" fill="#F0F0F0" fill-opacity="0.09"/>
    <path d="M56.5863 8.53836L66.6888 46.2413C66.971 47.2947 66.3574 48.38 65.3093 48.6812L55.7705 51.4221C55.591 51.4737 55.405 51.4999 55.2182 51.4999L32.9998 51.4999L26.4998 51.4998L15.5147 10.3166C15.2303 9.25022 15.8634 8.15497 16.9295 7.86932L42.4757 1.02423C42.9603 0.894394 43.4759 0.951384 43.9204 1.1839L55.5815 7.28381C56.0771 7.54308 56.4416 7.99806 56.5863 8.53836Z" stroke="white"/>
  </g>
  <path d="M50.2649 10.2262L24.9849 17" stroke="white"/>
  <path d="M52.7488 19.4958L27.4688 26.2695" stroke="white"/>
  <path d="M55.2327 28.7653L29.9526 35.5391" stroke="white"/>
  <path d="M57.7278 38.1305L32.4478 44.9043" stroke="white"/>
  <path d="M0.5 51.5H108" stroke="white"/>
  <defs>
    <filter id="filter0_b_0_1" x="9.94678" y="-4.54395" width="62.3105" height="61.5439" filterUnits="userSpaceOnUse" color-interpolation-filters="sRGB">
      <feFlood flood-opacity="0" result="BackgroundImageFix"/>
      <feGaussianBlur in="BackgroundImageFix" stdDeviation="2.5"/>
      <feComposite in2="SourceAlpha" operator="in" result="effect1_backgroundBlur_0_1"/>
      <feBlend mode="normal" in="SourceGraphic" in2="effect1_backgroundBlur_0_1" result="shape"/>
    </filter>
  </defs>
</svg>
