<svg width="148" height="124" viewBox="0 0 148 124" fill="none" xmlns="http://www.w3.org/2000/svg">
<rect width="148" height="124" rx="6" fill="#B3C8FF"/>
<rect x="6.5" y="29.5" width="135" height="46" rx="6.5" fill="white"/>
<path d="M16.731 53.702H17.836C17.836 54.5293 18.159 55.13 18.805 55.504C19.4623 55.878 20.5107 56.065 21.95 56.065C23.3667 56.065 24.398 55.878 25.044 55.504C25.7013 55.13 26.03 54.5293 26.03 53.702C26.03 52.8747 25.741 52.2797 25.163 51.917C24.585 51.5543 23.65 51.373 22.358 51.373H20.08V50.37H22.443C23.6443 50.37 24.517 50.2 25.061 49.86C25.605 49.52 25.877 48.9647 25.877 48.194C25.877 47.4347 25.5653 46.885 24.942 46.545C24.33 46.205 23.344 46.035 21.984 46.035C20.624 46.035 19.6323 46.2107 19.009 46.562C18.397 46.902 18.091 47.4517 18.091 48.211H16.986C16.986 47.0777 17.377 46.256 18.159 45.746C18.941 45.236 20.216 44.981 21.984 44.981C23.752 44.981 25.027 45.2247 25.809 45.712C26.591 46.1993 26.982 46.9927 26.982 48.092C26.982 49.52 26.3417 50.4493 25.061 50.88C25.775 51.1067 26.2963 51.458 26.625 51.934C26.965 52.41 27.135 53.039 27.135 53.821C27.135 54.977 26.7213 55.8157 25.894 56.337C25.078 56.8583 23.7633 57.119 21.95 57.119C20.1253 57.119 18.7993 56.8527 17.972 56.32C17.1447 55.776 16.731 54.9033 16.731 53.702ZM33.6267 57.119C32.4367 57.119 31.5584 56.915 30.9917 56.507C30.4364 56.099 30.1587 55.4473 30.1587 54.552C30.1587 53.6227 30.4704 52.9597 31.0937 52.563C31.7171 52.155 32.7257 51.951 34.1197 51.951H37.4517V51.696C37.4517 50.7667 37.2081 50.0923 36.7207 49.673C36.2447 49.2537 35.4741 49.044 34.4087 49.044C33.5474 49.044 32.8844 49.1857 32.4197 49.469C31.9664 49.741 31.6604 50.1773 31.5017 50.778H30.3797C30.5724 49.826 30.9861 49.1347 31.6207 48.704C32.2667 48.262 33.2131 48.041 34.4597 48.041C35.8877 48.041 36.9247 48.33 37.5707 48.908C38.2281 49.486 38.5567 50.4097 38.5567 51.679V57H37.4517V55.504C36.8057 56.5807 35.5307 57.119 33.6267 57.119ZM31.2807 54.518C31.2807 55.0847 31.4847 55.4927 31.8927 55.742C32.3121 55.9913 32.9637 56.116 33.8477 56.116C35.0151 56.116 35.8764 55.9007 36.4317 55.47C36.9984 55.0393 37.3384 54.3423 37.4517 53.379V52.818H34.3577C33.2811 52.818 32.4991 52.954 32.0117 53.226C31.5244 53.498 31.2807 53.9287 31.2807 54.518ZM42.3888 57V48.16H50.7528V57H49.6308V49.214H43.5108V57H42.3888ZM55.6305 57H54.6275V48.16H55.7495V55.232L61.9885 48.16H62.9915V57H61.8695V49.911L55.6305 57ZM70.6911 57.119C69.1498 57.119 68.0335 56.762 67.3421 56.048C66.6508 55.3227 66.3051 54.1667 66.3051 52.58C66.3051 50.9933 66.6508 49.843 67.3421 49.129C68.0335 48.4037 69.1498 48.041 70.6911 48.041C71.9831 48.041 72.9635 48.2903 73.6321 48.789C74.3121 49.2877 74.7485 50.081 74.9411 51.169H73.8361C73.6548 50.4437 73.3148 49.9167 72.8161 49.588C72.3288 49.2593 71.6318 49.095 70.7251 49.095C69.5691 49.095 68.7248 49.3727 68.1921 49.928C67.6708 50.472 67.4101 51.356 67.4101 52.58C67.4101 53.7927 67.6708 54.6767 68.1921 55.232C68.7248 55.7873 69.5691 56.065 70.7251 56.065C71.6205 56.065 72.3175 55.9007 72.8161 55.572C73.3148 55.232 73.6548 54.6993 73.8361 53.974H74.9411C74.7598 55.0733 74.3291 55.8723 73.6491 56.371C72.9805 56.8697 71.9945 57.119 70.6911 57.119ZM81.3363 57.119C80.1463 57.119 79.268 56.915 78.7013 56.507C78.146 56.099 77.8683 55.4473 77.8683 54.552C77.8683 53.6227 78.18 52.9597 78.8033 52.563C79.4266 52.155 80.4353 51.951 81.8293 51.951H85.1613V51.696C85.1613 50.7667 84.9176 50.0923 84.4303 49.673C83.9543 49.2537 83.1836 49.044 82.1183 49.044C81.257 49.044 80.594 49.1857 80.1293 49.469C79.676 49.741 79.37 50.1773 79.2113 50.778H78.0893C78.282 49.826 78.6956 49.1347 79.3303 48.704C79.9763 48.262 80.9226 48.041 82.1693 48.041C83.5973 48.041 84.6343 48.33 85.2803 48.908C85.9376 49.486 86.2663 50.4097 86.2663 51.679V57H85.1613V55.504C84.5153 56.5807 83.2403 57.119 81.3363 57.119ZM78.9903 54.518C78.9903 55.0847 79.1943 55.4927 79.6023 55.742C80.0216 55.9913 80.6733 56.116 81.5573 56.116C82.7246 56.116 83.586 55.9007 84.1413 55.47C84.708 55.0393 85.048 54.3423 85.1613 53.379V52.818H82.0673C80.9906 52.818 80.2086 52.954 79.7213 53.226C79.234 53.498 78.9903 53.9287 78.9903 54.518ZM97.5851 49.214H93.7601V57H92.6381V49.214H88.8131V48.16H97.5851V49.214ZM100.461 48.16H101.583V51.169H104.609C105.765 51.169 106.604 51.4013 107.125 51.866C107.646 52.3193 107.907 53.056 107.907 54.076C107.907 55.1073 107.646 55.8553 107.125 56.32C106.604 56.7733 105.765 57 104.609 57H100.461V48.16ZM104.507 52.223H101.583V55.946H104.524C105.329 55.946 105.907 55.7987 106.258 55.504C106.621 55.2093 106.802 54.7333 106.802 54.076C106.802 53.4187 106.621 52.9483 106.258 52.665C105.895 52.3703 105.312 52.223 104.507 52.223ZM115.014 57.119C113.473 57.119 112.356 56.762 111.665 56.048C110.974 55.3227 110.628 54.1667 110.628 52.58C110.628 50.9933 110.974 49.843 111.665 49.129C112.356 48.4037 113.473 48.041 115.014 48.041C116.306 48.041 117.286 48.2903 117.955 48.789C118.635 49.2877 119.071 50.081 119.264 51.169H118.159C117.978 50.4437 117.638 49.9167 117.139 49.588C116.652 49.2593 115.955 49.095 115.048 49.095C113.892 49.095 113.048 49.3727 112.515 49.928C111.994 50.472 111.733 51.356 111.733 52.58C111.733 53.7927 111.994 54.6767 112.515 55.232C113.048 55.7873 113.892 56.065 115.048 56.065C115.943 56.065 116.64 55.9007 117.139 55.572C117.638 55.232 117.978 54.6993 118.159 53.974H119.264C119.083 55.0733 118.652 55.8723 117.972 56.371C117.303 56.8697 116.317 57.119 115.014 57.119ZM122.089 57L124.605 53.753C123.755 53.651 123.137 53.3903 122.752 52.971C122.367 52.5403 122.174 51.8943 122.174 51.033C122.174 50.0243 122.435 49.2933 122.956 48.84C123.489 48.3867 124.344 48.16 125.523 48.16H129.875V57H128.753V53.787H125.914L123.432 57H122.089ZM123.296 51.033C123.296 51.6563 123.472 52.0983 123.823 52.359C124.174 52.6083 124.764 52.733 125.591 52.733H128.753V49.214H125.591C124.786 49.214 124.203 49.3557 123.84 49.639C123.477 49.9223 123.296 50.387 123.296 51.033Z" fill="#0047FF"/>
<rect x="6.5" y="29.5" width="135" height="46" rx="6.5" stroke="#0047FF"/>
</svg>
