<svg width="159" height="166" viewBox="0 0 159 166" fill="none" xmlns="http://www.w3.org/2000/svg">
<g filter="url(#filter0_d_202_688)">
<rect x="4" y="25" width="148" height="124" rx="6" fill="#B3C8FF"/>
<path d="M32.5261 1L13 148.5L136.5 148.5L153.146 40.775L134.017 15.3471L32.5261 1Z" fill="white" stroke="#0047FF"/>
<path d="M47.8232 31.0011L46.6629 30.8289L47.2569 26.8268L48.7031 27.0414C49.0033 26.9484 49.2608 26.7575 49.4755 26.4686C49.7031 26.1701 49.9605 25.5552 50.2477 24.6239C50.5461 23.6943 50.8545 22.3881 51.173 20.7053L51.9526 16.6104L60.4277 17.8682L58.843 28.5463L60.9113 28.8532L60.3174 32.8554L59.1571 32.6832L59.5888 29.7741L48.255 28.092L47.8232 31.0011ZM50.1997 27.2635L57.6827 28.3741L59.1052 18.789L52.9002 17.8681L52.3115 20.9087C51.6745 24.2743 50.9705 26.3926 50.1997 27.2635ZM68.6706 22.0648C70.2176 22.2944 71.2855 22.8195 71.874 23.6401C72.4755 24.4512 72.6597 25.6415 72.4268 27.2109C72.1939 28.7804 71.671 29.8715 70.8583 30.4841C70.0584 31.0873 68.885 31.274 67.3379 31.0444C65.7796 30.8131 64.6998 30.292 64.0983 29.4809C63.5098 28.6603 63.3319 27.4652 63.5649 25.8957C63.7978 24.3263 64.3142 23.24 65.1141 22.6369C65.9268 22.0242 67.1123 21.8335 68.6706 22.0648ZM64.6579 26.058C64.4799 27.2575 64.6136 28.171 65.0589 28.7985C65.5155 29.4277 66.3267 29.8288 67.4926 30.0018C68.6585 30.1749 69.5457 30.0258 70.1541 29.5547C70.7625 29.0836 71.1558 28.2483 71.3338 27.0487C71.5135 25.838 71.3798 24.9245 70.9328 24.3082C70.4874 23.6807 69.6818 23.2804 68.5159 23.1073C67.35 22.9343 66.4572 23.0825 65.8376 23.552C65.2308 24.0119 64.8376 24.8472 64.6579 26.058ZM75.0515 32.0689L76.3493 23.3247L82.8065 24.283L82.6518 25.3256L77.3044 24.532L76.1614 32.2336L75.0515 32.0689ZM89.3192 25.1293C90.8663 25.3589 91.9341 25.884 92.5227 26.7046C93.1241 27.5157 93.3084 28.706 93.0755 30.2754C92.8425 31.8449 92.3197 32.936 91.5069 33.5486C90.7071 34.1518 89.5336 34.3385 87.9866 34.1089C86.4283 33.8776 85.3484 33.3565 84.747 32.5454C84.1584 31.7248 83.9806 30.5297 84.2135 28.9602C84.4464 27.3908 84.9628 26.3045 85.7627 25.7014C86.5755 25.0887 87.761 24.898 89.3192 25.1293ZM85.3065 29.1224C85.1285 30.322 85.2622 31.2355 85.7076 31.863C86.1641 32.4922 86.9754 32.8933 88.1413 33.0663C89.3072 33.2394 90.1943 33.0903 90.8028 32.6192C91.4112 32.1481 91.8044 31.3128 91.9824 30.1132C92.1621 28.9025 92.0284 27.989 91.5814 27.3727C91.136 26.7451 90.3304 26.3449 89.1645 26.1718C87.9986 25.9988 87.1058 26.147 86.4862 26.6165C85.8795 27.0764 85.4862 27.9117 85.3065 29.1224ZM100.392 35.8297L95.7001 35.1334L96.9979 26.3892L101.303 27.0281C102.379 27.1878 103.131 27.4828 103.56 27.9131C104 28.345 104.161 28.9589 104.043 29.7549C103.905 30.6854 103.468 31.2736 102.733 31.5197C103.674 31.9688 104.06 32.765 103.891 33.9085C103.766 34.7493 103.429 35.3237 102.879 35.6316C102.331 35.9284 101.502 35.9944 100.392 35.8297ZM100.892 31.7621L97.4114 31.2455L96.9547 34.3228L100.436 34.8394C101.209 34.9542 101.776 34.918 102.136 34.7308C102.498 34.5325 102.719 34.1586 102.801 33.6093C102.881 33.0712 102.77 32.6595 102.469 32.3741C102.18 32.0792 101.655 31.8752 100.892 31.7621ZM97.5387 30.3879L100.599 30.8421C101.35 30.9536 101.905 30.9213 102.263 30.7454C102.633 30.5711 102.855 30.2317 102.93 29.7272C103.003 29.2339 102.888 28.8502 102.585 28.5761C102.295 28.2925 101.78 28.0957 101.04 27.9859L97.963 27.5292L97.5387 30.3879ZM112.07 28.5057C113.617 28.7353 114.685 29.2604 115.273 30.0811C115.875 30.8921 116.059 32.0824 115.826 33.6519C115.593 35.2214 115.07 36.3124 114.258 36.9251C113.458 37.5282 112.284 37.715 110.737 37.4854C109.179 37.2541 108.099 36.7329 107.498 35.9218C106.909 35.1012 106.731 33.9062 106.964 32.3367C107.197 30.7672 107.713 29.6809 108.513 29.0778C109.326 28.4651 110.512 28.2745 112.07 28.5057ZM108.057 32.4989C107.879 33.6984 108.013 34.612 108.458 35.2395C108.915 35.8686 109.726 36.2697 110.892 36.4428C112.058 36.6158 112.945 36.4668 113.553 35.9957C114.162 35.5245 114.555 34.6892 114.733 33.4897C114.913 32.2789 114.779 31.3654 114.332 30.7491C113.887 30.1216 113.081 29.7213 111.915 29.5483C110.749 29.3753 109.856 29.5235 109.237 29.9929C108.63 30.4528 108.237 31.2882 108.057 32.4989ZM117.827 42.7138L119.749 29.7656L120.858 29.9303L120.626 31.4942C121.376 30.4597 122.647 30.0755 124.441 30.3417C125.887 30.5563 126.882 31.0706 127.426 31.8846C127.982 32.689 128.144 33.876 127.911 35.4455C127.678 37.0149 127.178 38.1093 126.41 38.7286C125.655 39.3384 124.554 39.536 123.108 39.3213C121.314 39.0551 120.209 38.3183 119.793 37.1107L118.937 42.8785L117.827 42.7138ZM120.625 37.0623C121.061 37.677 121.856 38.07 123.011 38.2413C124.165 38.4127 125.04 38.2676 125.636 37.806C126.233 37.3332 126.622 36.4915 126.801 35.2807C126.979 34.0812 126.851 33.1685 126.417 32.5427C125.983 31.9168 125.188 31.5182 124.034 31.3468C122.879 31.1755 122.003 31.3262 121.406 31.799C120.809 32.2718 120.421 33.1079 120.243 34.3074C120.063 35.5182 120.191 36.4365 120.625 37.0623Z" fill="#0047FF"/>
<path d="M131.5 38.5L133.863 16.2875C133.911 15.8328 134.494 15.6762 134.764 16.0454L153 41L131.5 38.5Z" stroke="#0047FF"/>
<path d="M23 72C35 72 140.7 85.8 147.5 85" stroke="black"/>
<path d="M43.7551 47.1367L134.656 58.2556" stroke="black"/>
<path d="M42.7234 60.6328L109.831 68.8414" stroke="black"/>
<path d="M39.03 86.4922L106.138 94.7008" stroke="black"/>
<path d="M34.2227 124.953L67.4219 128.45" stroke="black"/>
<circle cx="114.5" cy="129.5" r="8" stroke="#0047FF"/>
</g>
<path d="M3 76.5C6.5 75.5 13.8 72 23 72" stroke="black"/>
<defs>
<filter id="filter0_d_202_688" x="0" y="0.433594" width="158.079" height="156.566" filterUnits="userSpaceOnUse" color-interpolation-filters="sRGB">
<feFlood flood-opacity="0" result="BackgroundImageFix"/>
<feColorMatrix in="SourceAlpha" type="matrix" values="0 0 0 0 0 0 0 0 0 0 0 0 0 0 0 0 0 0 127 0" result="hardAlpha"/>
<feOffset dy="4"/>
<feGaussianBlur stdDeviation="2"/>
<feComposite in2="hardAlpha" operator="out"/>
<feColorMatrix type="matrix" values="0 0 0 0 0 0 0 0 0 0 0 0 0 0 0 0 0 0 0.25 0"/>
<feBlend mode="normal" in2="BackgroundImageFix" result="effect1_dropShadow_202_688"/>
<feBlend mode="normal" in="SourceGraphic" in2="effect1_dropShadow_202_688" result="shape"/>
</filter>
</defs>
</svg>
