<svg width="148" height="127" viewBox="0 0 148 127" fill="none" xmlns="http://www.w3.org/2000/svg">
<rect y="3" width="148" height="124" rx="6" fill="#B3C8FF"/>
<path d="M40.6892 81.3242V95.108V95.3334C40.6892 95.6358 40.7787 95.9315 40.9465 96.1831C41.6811 97.2851 42.6907 98.1763 43.8754 98.7686L45.089 99.3755C45.8306 99.7462 46.5975 100.064 47.384 100.326L48.2703 100.622L55.8514 102.689L64.8108 104.067L68.9683 104.571C81.3161 106.068 93.797 106.111 106.155 104.698L111.676 104.067L122.014 102L125.953 100.818C127.918 100.229 129.828 99.4712 131.662 98.5539L133.316 97.3134C134.01 96.7928 134.419 95.9757 134.419 95.108V81.3242H40.6892Z" fill="white" stroke="#0047FF"/>
<path d="M134.608 81.3239C134.608 81.9293 134.346 82.5597 133.767 83.2154C133.186 83.8743 132.305 84.5337 131.131 85.1777C128.782 86.4653 125.35 87.6409 121.067 88.6341C112.508 90.6187 100.659 91.8509 87.5541 91.8509C74.4488 91.8509 62.5999 90.6187 54.0412 88.6341C49.7578 87.6409 46.3261 86.4653 43.9774 85.1777C42.8028 84.5337 41.9225 83.8743 41.341 83.2154C40.7624 82.5597 40.5 81.9293 40.5 81.3239C40.5 80.7185 40.7624 80.0881 41.341 79.4324C41.9225 78.7735 42.8028 78.1141 43.9774 77.4701C46.3261 76.1825 49.7578 75.0069 54.0412 74.0137C62.5999 72.0291 74.4488 70.7969 87.5541 70.7969C100.659 70.7969 112.508 72.0291 121.067 74.0137C125.35 75.0069 128.782 76.1825 131.131 77.4701C132.305 78.1141 133.186 78.7735 133.767 79.4324C134.346 80.0881 134.608 80.7185 134.608 81.3239Z" fill="white" stroke="#0047FF"/>
<path d="M40.6892 67.541V81.3248V81.5502C40.6892 81.8526 40.7787 82.1483 40.9465 82.3999C41.6811 83.5019 42.6907 84.3931 43.8754 84.9854L45.089 85.5923C45.8306 85.963 46.5975 86.2807 47.384 86.5429L48.2703 86.8383L55.8514 88.9059L64.8108 90.2843L68.9683 90.7882C81.3161 92.2849 93.797 92.3275 106.155 90.9152L111.676 90.2843L122.014 88.2167L125.953 87.0348C127.918 86.4454 129.828 85.688 131.662 84.7707L133.316 83.5302C134.01 83.0096 134.419 82.1925 134.419 81.3248V67.541H40.6892Z" fill="white" stroke="#0047FF"/>
<path d="M134.608 67.5407C134.608 68.1461 134.346 68.7765 133.767 69.4322C133.186 70.0911 132.305 70.7505 131.131 71.3945C128.782 72.6821 125.35 73.8577 121.067 74.8509C112.508 76.8355 100.659 78.0677 87.5541 78.0677C74.4488 78.0677 62.5999 76.8355 54.0412 74.8509C49.7578 73.8577 46.3261 72.6821 43.9774 71.3945C42.8028 70.7505 41.9225 70.0911 41.341 69.4322C40.7624 68.7765 40.5 68.1461 40.5 67.5407C40.5 66.9353 40.7624 66.3049 41.341 65.6492C41.9225 64.9903 42.8028 64.3309 43.9774 63.6869C46.3261 62.3993 49.7578 61.2237 54.0412 60.2305C62.5999 58.2459 74.4488 57.0137 87.5541 57.0137C100.659 57.0137 112.508 58.2459 121.067 60.2305C125.35 61.2237 128.782 62.3993 131.131 63.6869C132.305 64.3309 133.186 64.9903 133.767 65.6492C134.346 66.3049 134.608 66.9353 134.608 67.5407Z" fill="white" stroke="#0047FF"/>
<path d="M40.6892 53.7578V67.5416V67.767C40.6892 68.0694 40.7787 68.3651 40.9465 68.6167C41.6811 69.7187 42.6907 70.6099 43.8754 71.2022L45.089 71.8091C45.8306 72.1798 46.5975 72.4975 47.384 72.7597L48.2703 73.0551L55.8514 75.1227L64.8108 76.5011L68.9683 77.005C81.3161 78.5017 93.797 78.5443 106.155 77.132L111.676 76.5011L122.014 74.4335L125.953 73.2516C127.918 72.6622 129.828 71.9048 131.662 70.9875L133.316 69.747C134.01 69.2264 134.419 68.4093 134.419 67.5416V53.7578H40.6892Z" fill="white" stroke="#0047FF"/>
<path d="M134.608 53.7575C134.608 54.3629 134.346 54.9933 133.767 55.649C133.186 56.3079 132.305 56.9673 131.131 57.6113C128.782 58.8989 125.35 60.0745 121.067 61.0677C112.508 63.0523 100.659 64.2845 87.5541 64.2845C74.4488 64.2845 62.5999 63.0523 54.0412 61.0677C49.7578 60.0745 46.3261 58.8989 43.9774 57.6113C42.8028 56.9673 41.9225 56.3079 41.341 55.649C40.7624 54.9933 40.5 54.3629 40.5 53.7575C40.5 53.1521 40.7624 52.5217 41.341 51.866C41.9225 51.2071 42.8028 50.5477 43.9774 49.9037C46.3261 48.6161 49.7578 47.4405 54.0412 46.4473C62.5999 44.4627 74.4488 43.2305 87.5541 43.2305C100.659 43.2305 112.508 44.4627 121.067 46.4473C125.35 47.4405 128.782 48.6161 131.131 49.9037C132.305 50.5477 133.186 51.2071 133.767 51.866C134.346 52.5217 134.608 53.1521 134.608 53.7575Z" fill="white" stroke="#0047FF"/>
<path d="M40.6892 39.9727V53.7564V53.9819C40.6892 54.2843 40.7787 54.5799 40.9465 54.8315C41.6811 55.9335 42.6907 56.8248 43.8754 57.4171L45.089 58.0239C45.8306 58.3947 46.5975 58.7123 47.384 58.9745L48.2703 59.27L55.8514 61.3375L64.8108 62.7159L68.9683 63.2198C81.3161 64.7165 93.797 64.7592 106.155 63.3469L111.676 62.7159L122.014 60.6483L125.953 59.4664C127.918 58.8771 129.828 58.1196 131.662 57.2024L133.316 55.9618C134.01 55.4412 134.419 54.6241 134.419 53.7564V39.9727H40.6892Z" fill="white" stroke="#0047FF"/>
<path d="M134.608 39.9723C134.608 40.5777 134.346 41.2081 133.767 41.8638C133.186 42.5227 132.305 43.1822 131.131 43.8261C128.782 45.1138 125.35 46.2893 121.067 47.2825C112.508 49.2672 100.659 50.4994 87.5541 50.4994C74.4488 50.4994 62.5999 49.2672 54.0412 47.2825C49.7578 46.2893 46.3261 45.1138 43.9774 43.8261C42.8028 43.1822 41.9225 42.5227 41.341 41.8638C40.7624 41.2081 40.5 40.5777 40.5 39.9723C40.5 39.367 40.7624 38.7366 41.341 38.0808C41.9225 37.422 42.8028 36.7625 43.9774 36.1186C46.3261 34.8309 49.7578 33.6554 54.0412 32.6621C62.5999 30.6775 74.4488 29.4453 87.5541 29.4453C100.659 29.4453 112.508 30.6775 121.067 32.6621C125.35 33.6554 128.782 34.8309 131.131 36.1186C132.305 36.7625 133.186 37.422 133.767 38.0808C134.346 38.7366 134.608 39.367 134.608 39.9723Z" fill="white" stroke="#0047FF"/>
<path d="M47.5811 24.8105V38.5943V38.8198C47.5811 39.1222 47.6706 39.4178 47.8383 39.6694C48.573 40.7714 49.5826 41.6626 50.7672 42.255L51.9809 42.8618C52.7224 43.2326 53.4893 43.5502 54.2758 43.8124L55.1621 44.1078L62.7432 46.1754L71.7027 47.5538L75.8601 48.0577C88.208 49.5544 100.689 49.5971 113.047 48.1847L118.568 47.5538L128.905 45.4862L132.845 44.3043C134.81 43.715 136.72 42.9575 138.554 42.0403L140.208 40.7997C140.902 40.2791 141.311 39.462 141.311 38.5943V24.8105H47.5811Z" fill="white" stroke="#0047FF"/>
<path d="M141.5 24.8102C141.5 25.4156 141.238 26.046 140.659 26.7017C140.077 27.3606 139.197 28.0201 138.023 28.664C135.674 29.9517 132.242 31.1272 127.959 32.1204C119.4 34.1051 107.551 35.3373 94.4459 35.3373C81.3406 35.3373 69.4918 34.1051 60.9331 32.1204C56.6497 31.1272 53.218 29.9517 50.8692 28.664C49.6947 28.0201 48.8143 27.3606 48.2329 26.7017C47.6542 26.046 47.3918 25.4156 47.3918 24.8102C47.3918 24.2049 47.6542 23.5745 48.2329 22.9187C48.8143 22.2598 49.6947 21.6004 50.8692 20.9564C53.218 19.6688 56.6497 18.4933 60.9331 17.5C69.4918 15.5154 81.3406 14.2832 94.4459 14.2832C107.551 14.2832 119.4 15.5154 127.959 17.5C132.242 18.4933 135.674 19.6688 138.023 20.9564C139.197 21.6004 140.077 22.2598 140.659 22.9187C141.238 23.5745 141.5 24.2049 141.5 24.8102Z" fill="white" stroke="#0047FF"/>
<path d="M47.5811 11.0273V24.8111V25.0365C47.5811 25.3389 47.6706 25.6346 47.8383 25.8862C48.573 26.9882 49.5826 27.8794 50.7672 28.4718L51.9809 29.0786C52.7224 29.4494 53.4893 29.767 54.2758 30.0292L55.1621 30.3246L62.7432 32.3922L71.7027 33.7706L75.8601 34.2745C88.208 35.7712 100.689 35.8139 113.047 34.4015L118.568 33.7706L128.905 31.703L132.845 30.5211C134.81 29.9318 136.72 29.1743 138.554 28.2571L140.208 27.0165C140.902 26.4959 141.311 25.6788 141.311 24.8111V11.0273H47.5811Z" fill="white" stroke="#0047FF"/>
<path d="M141.5 11.027C141.5 11.6324 141.238 12.2628 140.659 12.9185C140.077 13.5774 139.197 14.2369 138.023 14.8808C135.674 16.1685 132.242 17.344 127.959 18.3372C119.4 20.3219 107.551 21.5541 94.4459 21.5541C81.3406 21.5541 69.4918 20.3219 60.9331 18.3372C56.6497 17.344 53.218 16.1685 50.8692 14.8808C49.6947 14.2369 48.8143 13.5774 48.2329 12.9185C47.6542 12.2628 47.3918 11.6324 47.3918 11.027C47.3918 10.4217 47.6542 9.79126 48.2329 9.13553C48.8143 8.47665 49.6947 7.81719 50.8692 7.17324C53.218 5.8856 56.6497 4.71006 60.9331 3.71682C69.4918 1.73218 81.3406 0.5 94.4459 0.5C107.551 0.5 119.4 1.73218 127.959 3.71682C132.242 4.71006 135.674 5.8856 138.023 7.17324C139.197 7.81719 140.077 8.47665 140.659 9.13553C141.238 9.79126 141.5 10.4217 141.5 11.027Z" fill="white" stroke="#0047FF"/>
<path d="M10.8296 104.055L24.1437 107.622L24.3614 107.681C24.6535 107.759 24.9623 107.749 25.2487 107.652C26.5033 107.228 27.6255 106.483 28.5042 105.492L29.4045 104.477C29.9546 103.856 30.4599 103.198 30.9167 102.506L31.4315 101.726L35.3907 94.9388L39.041 86.6414L40.6038 82.756C45.2454 71.2163 48.5168 59.1717 50.3511 46.8694L51.1705 41.3734L51.849 30.8527L51.7271 26.7413C51.6663 24.6912 51.4289 22.6502 51.0178 20.6409L50.2476 18.7222C49.9244 17.9169 49.2409 17.3108 48.4027 17.0862L35.0886 13.5187L10.8296 104.055Z" fill="white" stroke="#0047FF"/>
<path d="M35.1377 13.3368C35.7224 13.4935 36.2634 13.9101 36.747 14.6387C37.233 15.3709 37.6421 16.3919 37.9601 17.6931C38.596 20.2951 38.8433 23.9141 38.6941 28.3086C38.3959 37.0894 36.5194 48.8534 33.1275 61.5121C29.7356 74.1708 25.4787 85.297 21.3465 93.0505C19.2785 96.9308 17.2549 99.9413 15.4032 101.877C14.4772 102.845 13.6123 103.524 12.8254 103.915C12.0423 104.305 11.3654 104.395 10.7807 104.238C10.196 104.082 9.65495 103.665 9.17133 102.936C8.68538 102.204 8.27625 101.183 7.95825 99.8819C7.32237 97.2799 7.07509 93.6609 7.2243 89.2664C7.52246 80.4856 9.39896 68.7216 12.7909 56.0629C16.1828 43.4042 20.4397 32.278 24.5718 24.5246C26.6398 20.6442 28.6635 17.6337 30.5152 15.6983C31.4412 14.7304 32.306 14.0507 33.093 13.6596C33.8761 13.2704 34.5529 13.1801 35.1377 13.3368Z" fill="white" stroke="#0047FF"/>
</svg>
