<svg width="181" height="145" viewBox="0 0 181 145" fill="none" xmlns="http://www.w3.org/2000/svg">
<path d="M115.392 115.119L107.598 110.619C106.163 109.791 105.671 107.957 106.5 106.522L119.5 84.0045L131 64.0859L140.75 47.1984L150.5 30.3109L159 15.5885L166.501 2.59556C167.33 1.16068 169.163 0.671573 170.598 1.5L178.392 6C179.827 6.82843 180.319 8.6632 179.49 10.0981L171.99 23.0885L163.49 37.8109L153.74 54.6984L143.99 71.5859L132.49 91.5045L119.49 114.021C118.662 115.456 116.827 115.948 115.392 115.119Z" fill="white"/>
<path d="M119.5 84.0045C114.75 92.2321 110.295 99.9484 106.5 106.522C105.671 107.957 106.163 109.791 107.598 110.619L115.392 115.119C116.827 115.948 118.662 115.456 119.49 114.021L132.49 91.5045M119.5 84.0045L132.49 91.5045M119.5 84.0045C123.211 77.5766 127.102 70.8367 131 64.0859M132.49 91.5045L143.99 71.5859M143.99 71.5859L131 64.0859M143.99 71.5859L153.74 54.6984M131 64.0859C134.28 58.4045 137.565 52.7155 140.75 47.1984M140.75 47.1984L153.74 54.6984M140.75 47.1984C144.156 41.2996 147.448 35.5973 150.5 30.3109M153.74 54.6984L163.49 37.8109M163.49 37.8109L150.5 30.3109M163.49 37.8109L171.99 23.0885M150.5 30.3109C153.632 24.8865 156.511 19.9 159 15.5885M159 15.5885C162.283 9.90228 164.888 5.39005 166.501 2.59556C167.33 1.16068 169.163 0.671573 170.598 1.5L178.392 6C179.827 6.82843 180.319 8.6632 179.49 10.0981L171.99 23.0885M159 15.5885L171.99 23.0885" stroke="#0047FF"/>
<rect x="13" y="20" width="148" height="124" rx="6" fill="#B3C8FF"/>
<path d="M130.364 64L138.545 68.1667L144 71.8125L134.182 89L120 81.7083L130.364 64Z" fill="#0047FF"/>
<path d="M41 40V144H133V40C133 38.3431 131.657 37 130 37H44C42.3431 37 41 38.3431 41 40Z" fill="white" stroke="#0047FF"/>
<path d="M47 47V144H127V47C127 45.3431 125.657 44 124 44H50C48.3431 44 47 45.3431 47 47Z" fill="white" stroke="#0047FF"/>
<path d="M100 40H70C68.3431 40 67 38.6569 67 37V34.5C67 32.8431 68.3431 31.5 70 31.5H77.7805C78.1734 31.5 78.5465 31.3271 78.8004 31.0273C82.3597 26.8253 88.8403 26.8253 92.3996 31.0273C92.6536 31.3271 93.0266 31.5 93.4195 31.5H100C101.657 31.5 103 32.8431 103 34.5V37C103 38.6569 101.657 40 100 40Z" fill="white" stroke="#0047FF"/>
<path d="M150.5 30.5L158 34.5L163 38L154 54.5L141 47.5L150.5 30.5Z" fill="#0047FF"/>
<path d="M167.031 2.16822C167.572 1.2373 168.752 0.901216 169.702 1.40779L175.5 4.5L179.011 6.95735C179.855 7.54856 180.112 8.6849 179.604 9.58184L172 23L159 16L167.031 2.16822Z" fill="#0047FF"/>
<path d="M21.3672 56.7724C8.41609 56.8153 -1.13015 50.2857 3.52054 43.5449C3.61109 43.4137 3.71307 43.2946 3.82742 43.1835C17.917 29.4903 66.04 13.1712 67.9668 16.4993C69.5143 19.1723 63.4254 26.4654 60.1876 29.7779C61.3435 31.1155 63.3569 33.6754 63.84 35.0675C64.0086 35.5534 63.665 35.9738 63.2314 36.2503C59.9553 38.3392 54.8806 41.699 50.6662 44.7907C49.1552 47.6748 47.2345 54.2761 42.9483 62.9934C40.6576 67.6523 36.0777 70.9216 32.3561 72.7495C30.557 73.6331 28.6645 72.2051 28.7036 70.2011L28.8357 63.4288C26.7143 61.3418 22.2506 57.0887 21.3672 56.7724Z" fill="white"/>
<path d="M21.3672 56.7724C8.41609 56.8153 -1.13015 50.2857 3.52054 43.5449C3.61109 43.4137 3.71307 43.2946 3.82742 43.1835C17.917 29.4903 66.04 13.1712 67.9668 16.4993C69.5143 19.1723 63.4254 26.4654 60.1876 29.7779M21.3672 56.7724C28.4076 48.2374 44.7882 31.0812 56.3305 27.6438C57.351 27.3398 58.4214 27.7343 59.1177 28.5399L60.1876 29.7779M21.3672 56.7724C22.2506 57.0887 26.7143 61.3418 28.8357 63.4288M60.1876 29.7779C61.3435 31.1155 63.3569 33.6754 63.84 35.0675C64.0086 35.5534 63.665 35.9738 63.2314 36.2503C59.9553 38.3392 54.8806 41.699 50.6662 44.7907M28.8357 63.4288C31.344 64.3459 40.1167 54.6433 44.1142 50.2245C45.3535 48.8546 47.8126 46.8841 50.6662 44.7907M28.8357 63.4288L28.7036 70.2011C28.6645 72.2051 30.557 73.6331 32.3561 72.7495C36.0777 70.9216 40.6576 67.6523 42.9483 62.9934C47.2345 54.2761 49.1552 47.6748 50.6662 44.7907" stroke="#0047FF"/>
</svg>
