<svg width="141" height="157" viewBox="0 0 141 157" fill="none" xmlns="http://www.w3.org/2000/svg">
<path d="M115.368 68.552C114.117 66.9854 95.4895 62.7446 85.6518 60.6736C85.2175 60.5822 84.8995 60.217 84.8642 59.7746L84.1848 51.2621C84.1483 50.8039 84.4372 50.3887 84.8189 50.1325C87.0724 48.6197 88.7363 43.7697 89.4999 40.6551C89.6352 40.1032 90.1927 39.7794 90.7609 39.7808C92.1443 39.7842 92.7119 38.8987 92.8787 38.1386C92.9474 37.8254 93.0934 37.521 93.3459 37.3233C98.1489 33.5629 95.9648 29.792 93.8592 28.0008C93.5525 27.7399 93.3921 27.3396 93.4792 26.9465C94.0659 24.3002 95.1505 19.4075 95.7393 16.7515C96.5404 13.1375 92.9353 11.5313 91.3329 11.5313C89.7306 11.5313 90.5318 6.71264 89.7306 5.90953C89.3573 5.53533 88.8754 5.68783 88.4588 5.98622C87.9991 6.31549 87.3588 6.42124 86.8671 6.14205C85.9826 5.63988 84.6786 5.10635 83.3214 5.10635C80.918 5.10635 82.1197 1.89396 80.1168 1.09085C78.1139 0.287739 74.1082 5.10635 72.9064 3.90169C71.7047 2.69702 62.0909 0.689251 61.2897 5.10635C60.8638 7.45446 59.7069 8.86875 58.665 9.63199C58.0779 10.0622 57.7049 11.0481 57.8479 11.7618C58.0935 12.9884 58.0949 14.9125 57.284 17.5545C56.2291 20.9911 57.5432 24.3915 58.637 26.2339C58.9489 26.7592 58.8027 27.4677 58.302 27.8177C52.826 31.6451 56.4091 35.8665 58.3107 36.9761C58.6444 37.1708 58.9139 37.4838 59.0819 37.8318C59.5173 38.7333 60.4195 38.9316 61.288 38.9285C61.915 38.9263 62.448 39.4194 62.5153 40.0428C62.9191 43.7784 66.1897 48.061 68.1789 50.1521C68.3813 50.3649 68.486 50.6508 68.4617 50.9434L67.7123 59.958C67.7034 60.0649 67.6789 60.1697 67.6311 60.2657C67.159 61.2141 65.8235 62.6408 63.6931 61.7256C60.8891 60.5209 50.8747 61.324 49.673 61.7256C48.7116 62.0468 24.4367 71.0525 12.4194 75.5152M115.368 68.552L116.251 67.6663C116.852 67.064 116.455 65.9827 115.711 65.5709C114.875 65.1081 114.355 64.3355 114.987 63.1249C115.182 62.7498 115.204 62.2949 115.044 61.9035C114.617 60.8665 114.339 59.1134 115.368 57.3085C115.647 56.8175 115.927 56.3878 116.207 56.013M115.368 68.552C115.368 69.7802 116.131 71.659 116.622 72.6774C116.714 72.8682 116.75 73.0748 116.717 73.284C114.695 86.206 110.51 111.593 109.556 112.231C108.595 112.873 106.888 114.968 106.154 115.935M106.154 115.935C106.795 131.676 115.234 135.076 119.373 134.808C133.077 135.128 125.467 94.3047 125.383 73.317C125.382 73.0866 125.463 72.8733 125.6 72.6876C128.191 69.1641 127.918 62.865 127.418 59.9082C127.397 59.7808 127.399 59.6526 127.424 59.526C127.716 58.0816 127.817 56.9326 127.772 56.013M106.154 115.935C106.288 120.219 106.715 129.99 107.356 134.808C108.147 140.752 112.838 152.952 108.343 155.589C108.224 155.658 108.085 155.693 107.947 155.7C102.267 156 98.9763 156 85.5216 156C72.3026 156 69.8513 156 61.487 156C54.008 156 54.5582 155.65 49.4501 155.604C48.8323 155.598 48.3599 155.042 48.4774 154.436C49.2337 150.533 50.0735 148.91 50.0735 140.832C50.0735 132.045 46.9035 139.942 49.2338 129.756C49.2581 129.65 49.2673 129.537 49.2565 129.429C48.5027 121.818 47.3472 106.278 48.2685 100.463C48.3558 99.9118 48.0284 99.3607 47.4872 99.2251L32.4482 95.4562M32.4482 95.4562C20.965 96.6608 -1.36046 95.7774 1.20323 82.6064C1.41373 79.8632 4.07995 75.5066 12.4194 75.5152M32.4482 95.4562C36.3204 94.6531 44.3854 93.2878 45.6672 94.2515C47.2695 95.4562 58.4856 98.6686 60.8891 98.6686C62.7696 98.6686 66.0805 98.9247 67.5992 99.0611C67.6663 99.0672 67.7347 99.0665 67.8014 99.0578C70.5747 98.6957 70.2295 96.5141 69.7018 95.4562M72.5058 87.4251C76.9122 83.4095 66.0966 81.4018 64.4943 81.4018C62.892 81.4018 60.4885 81.0002 60.8891 80.5987C61.2897 80.1971 60.8891 80.1971 62.0908 76.1816C63.2926 72.166 58.8862 71.7645 59.2868 73.3707C59.5778 74.5374 58.1296 77.7785 57.1609 79.6677C56.9929 79.9954 56.6499 80.2099 56.3125 80.3577C55.072 80.9011 52.7173 82.7028 51.2737 83.8831C51.0218 84.089 50.6917 84.1636 50.3773 84.0801C45.9624 82.9078 34.6037 79.9805 20.4309 76.5831C17.3094 75.8348 14.6597 75.5175 12.4194 75.5152M72.5058 87.4251L68.5001 86.2204M72.5058 87.4251C73.307 88.7636 74.5087 89.8344 71.7047 91.8422M71.7047 91.8422C71.1706 91.4406 69.6217 90.5572 67.6989 90.236M71.7047 91.8422C72.2388 93.0468 72.5859 95.4562 69.7018 95.4562M69.7018 95.4562C69.0342 95.0546 67.3784 94.2515 66.0966 94.2515M116.207 56.013C117.53 54.2416 118.852 53.6945 120.174 53.6945C121.777 53.6945 120.575 50.8836 122.978 51.6867C124.898 52.3283 127.585 52.2011 127.772 56.013M116.207 56.013H106.55C105.998 56.013 105.55 55.5652 105.55 55.013V34.9275C105.55 34.3752 105.998 33.9275 106.55 33.9275H139C139.552 33.9275 140 34.3752 140 34.9275V55.013C140 55.5652 139.552 56.013 139 56.013H127.772M122.375 39.5492H137.997M122.375 42.3601H133.19M122.375 45.5725H133.991M122.375 48.3834H137.196M107.954 51.399V39.7461C107.954 39.1938 108.402 38.7461 108.954 38.7461H118.17C118.722 38.7461 119.17 39.1938 119.17 39.7461V51.399C119.17 51.9512 118.722 52.399 118.17 52.399H108.954C108.402 52.399 107.954 51.9512 107.954 51.399Z" stroke="white"/>
<circle cx="68" cy="29" r="2" fill="white"/>
<path d="M71 26C70.2308 25.5453 68.1538 24.7269 66 25.0906" stroke="white"/>
<circle cx="2" cy="2" r="2" transform="matrix(-1 0 0 1 85 27)" fill="white"/>
<path d="M80 26C80.9231 25.5453 83.4154 24.7269 86 25.0906" stroke="white"/>
</svg>
