<svg width="184" height="148" viewBox="0 0 184 148" fill="none" xmlns="http://www.w3.org/2000/svg">
<g filter="url(#filter0_d_210_853)">
<rect x="5" y="11" width="148" height="124" rx="6" fill="#B3C8FF"/>
<path d="M16 102.421V19.7143C16 18.2256 17.0916 16.9622 18.5644 16.746L124.667 1.17549C125.434 1.06289 126.215 1.25177 126.846 1.70249L132.394 5.66504L131.973 82.626C131.967 83.6831 132.518 84.6652 133.423 85.2112L177.715 111.93C178.615 112.473 179.165 113.448 179.165 114.499V121.286C179.165 122.809 178.025 124.089 176.513 124.266L51.0906 138.907C50.1457 139.017 49.2045 138.673 48.5539 137.978L29.4028 117.546L16.8393 104.502C16.3008 103.943 16 103.197 16 102.421Z" fill="white" stroke="#0047FF"/>
<path d="M21.8274 94.2487V24.7055C21.8274 23.7148 22.5527 22.8734 23.5326 22.7273L127.921 7.17013C129.129 6.99 130.216 7.9263 130.216 9.14828V78.6915C130.216 79.6822 129.49 80.5236 128.51 80.6696L24.1222 96.2268C22.9136 96.4069 21.8274 95.4706 21.8274 94.2487Z" fill="white" stroke="#0047FF"/>
<path d="M130.76 83.1055L178.799 112.668C178.959 112.767 178.907 113.012 178.721 113.037L144.755 117.627L55.186 128.823L43.9899 117.627L22.5308 98.9666L130.76 83.1055Z" fill="white" stroke="#0047FF"/>
<path d="M153.5 64C147.286 57.7862 133.323 41.4186 126.262 33.0635C123.838 30.196 124.035 25.9651 126.69 23.3102V23.3102C129.943 20.0567 135.366 20.618 137.884 24.4691L138.011 24.6643C140.019 27.7348 139.488 31.8105 136.761 34.2647L132.168 38.3991C128.54 41.6636 123.759 43.3434 118.887 43.065L109 42.5" stroke="black"/>
<path d="M74.9248 40.3873L53.9846 50.7951L53.9846 59.5003M53.9846 59.5003L52.0002 69.8381L56 69.8381L53.9846 59.5003Z" stroke="#0047FF"/>
<path d="M59.3262 57.7559L59.7957 63.3361C65.2289 64.1903 76.8093 66.7376 79.6652 70.0939C83.157 66.9902 91.8441 60.6395 98.6584 60.0661L98.1888 54.4858" stroke="#0047FF"/>
<path d="M5 59C15.1382 55.6667 37.9317 48.8 48 48" stroke="black"/>
<path d="M51.8351 48.9245L47.4426 47.7171L76.8785 34.2014L109.224 42.5186L78.7231 56.124L58.9786 50.9517" stroke="#0047FF"/>
</g>
<defs>
<filter id="filter0_d_210_853" x="0.84375" y="0.644531" width="182.821" height="146.783" filterUnits="userSpaceOnUse" color-interpolation-filters="sRGB">
<feFlood flood-opacity="0" result="BackgroundImageFix"/>
<feColorMatrix in="SourceAlpha" type="matrix" values="0 0 0 0 0 0 0 0 0 0 0 0 0 0 0 0 0 0 127 0" result="hardAlpha"/>
<feOffset dy="4"/>
<feGaussianBlur stdDeviation="2"/>
<feComposite in2="hardAlpha" operator="out"/>
<feColorMatrix type="matrix" values="0 0 0 0 0 0 0 0 0 0 0 0 0 0 0 0 0 0 0.25 0"/>
<feBlend mode="normal" in2="BackgroundImageFix" result="effect1_dropShadow_210_853"/>
<feBlend mode="normal" in="SourceGraphic" in2="effect1_dropShadow_210_853" result="shape"/>
</filter>
</defs>
</svg>
