<svg width="1067" height="803" viewBox="0 0 1067 803" fill="none" xmlns="http://www.w3.org/2000/svg">
<path d="M72.5 70V70C96.6424 87.6857 130.388 83.4779 149.448 60.4051L159.856 47.806C173.88 30.8297 194.75 21 216.77 21H276.059C295.566 21 314.953 17.946 333.515 11.949V11.949C357.796 4.10453 383.638 2.37835 408.746 6.92377L451.52 14.6675C474.793 18.8807 498.397 21 522.048 21H934.137C940.429 21 946.44 23.6078 950.738 28.2027V28.2027C961.54 39.75 958.853 66.8085 969.701 78.3125C970.673 79.3437 971.769 80.4062 973 81.5M621 802.5H856C930.835 802.5 991.5 741.835 991.5 667V632.841C991.5 576.872 946.128 531.5 890.159 531.5H805.092C784.559 531.5 769.23 512.605 773.462 492.513V492.513C779.919 461.856 743.356 440.861 720.133 461.89L639.13 535.244C623.311 549.568 601.669 555.606 580.72 551.538L573.86 550.206C566.371 548.752 559.273 545.734 553.029 541.35V541.35C543.899 534.94 533.014 531.5 521.858 531.5H129.5C58.5314 531.5 1 473.969 1 403V403C1 332.031 58.5314 274.5 129.5 274.5H222.027C242.247 274.5 262.371 271.726 281.836 266.254L319.521 255.662C336.451 250.903 353.872 248.106 371.44 247.325L380.919 246.904C386.963 246.635 393.019 246.855 399.028 247.562L425.451 250.671C435.474 251.85 444.727 256.632 451.486 264.126V264.126C459.446 272.951 470.799 277.951 482.683 277.865L948.5 274.5L959.212 273.254C965.962 272.47 971.886 268.399 975.039 262.379V262.379C978.686 255.418 978.042 246.985 973.38 240.658L972.209 239.069C965.458 229.907 967.383 217.01 976.516 210.219V210.219C978.489 208.751 980.185 206.943 981.524 204.88L991.5 189.5" stroke="black"/>
<path d="M971 216.5C977.5 207 1070 169.1 1066 153.5C1061 134 980.5 92 973 81.5" stroke="url(#paint0_linear_213_862)"/>
<defs>
<linearGradient id="paint0_linear_213_862" x1="973.5" y1="82" x2="1054.5" y2="138.5" gradientUnits="userSpaceOnUse">
<stop/>
<stop offset="0.973282"/>
</linearGradient>
</defs>
</svg>
