<svg width="189" height="97" viewBox="0 0 189 97" fill="none" xmlns="http://www.w3.org/2000/svg">
<path fill-rule="evenodd" clip-rule="evenodd" d="M51.1061 54.2703L64.7218 63.2905L59.5139 67.7338L51.1061 54.2703Z" fill="#C03A23"/>
<path d="M7.0762 81.2237H0.0412926V46.0492H7.0762V60.1693H24.6132V46.0492H31.5979V81.2237H24.6132V67.2042H7.0762V81.2237Z" fill="white"/>
<path d="M79.7022 74.1888H97.2392V67.2042H79.7022V74.1888ZM79.7022 60.1693H97.2392V53.0841H79.7022V60.1693ZM100.757 81.2237H72.6673V46.0492H100.757L104.224 49.6169V60.1693L100.757 63.6867L104.224 67.2042V77.7565L100.757 81.2237Z" fill="white"/>
<path d="M116.261 74.1888H133.798V63.6867H116.261V74.1888ZM137.315 81.2237H109.226V46.0492H116.261V56.6518H137.315L140.782 60.1693V77.7565L137.315 81.2237ZM151.335 81.2237H144.35V46.0492H151.335V81.2237Z" fill="white"/>
<path d="M163.418 81.2237H156.383V46.0492H163.418V60.1693H173.92L180.955 53.1344V46.0492H187.94V56.6518L180.955 63.6867L187.94 70.7216V81.2237H180.955V74.1888L173.92 67.2042H163.418V81.2237Z" fill="white"/>
<path d="M60.6691 63.6867V60.5473H67.6537V53.0841H60.6691H50.1167L43.132 60.1693H36.0971V63.6867H60.6691ZM43.132 81.2237H36.0971V60.1693V56.6518L46.5992 46.0492H67.6537V81.2237H60.6691V70.7216H43.132V81.2237Z" fill="white"/>
<path d="M62.8694 92.9311H66.3193V90.8453H64.2434L62.8694 92.2391V92.9311ZM62.8694 96.381H61.4854V91.5472L63.5514 89.4614H67.6933V96.381H66.3193V94.315H62.8694V96.381Z" fill="white"/>
<path d="M70.0635 94.9971H73.5134V93.623H70.0635V94.9971ZM70.0635 92.2391H73.5134V90.8453H70.0635V92.2391ZM74.2053 96.381H68.6796V89.4614H74.2053L74.8874 90.1632V92.2391L74.2053 92.9311L74.8874 93.623V95.6989L74.2053 96.381Z" fill="white"/>
<path d="M79.3806 96.381H77.9967V90.8453H75.5748V89.4614H81.7827V90.8453H79.3806V96.381Z" fill="white"/>
<path d="M83.8582 94.9971H87.3081V90.8453H83.8582V94.9971ZM88.0001 96.381H83.1564L82.4743 95.6989V90.1632L83.1564 89.4614H88.0001L88.6822 90.1632V95.6989L88.0001 96.381Z" fill="white"/>
<path d="M97.9499 96.381H89.6661V89.4614H91.05V94.9971H93.116V89.4614H94.5V94.9971H96.5758V89.4614H97.9499V96.381Z" fill="white"/>
<path d="M100.327 96.381H98.9431V89.4614H100.327V92.2391H102.393L103.777 90.8552V89.4614H105.151V91.5472L103.777 92.9311L105.151 94.315V96.381H103.777V94.9971L102.393 93.623H100.327V96.381Z" fill="white"/>
<path d="M107.422 94.9971H110.872V90.8453H107.422V94.9971ZM111.564 96.381H106.72L106.038 95.6989V90.1632L106.72 89.4614H111.564L112.246 90.1632V95.6989L111.564 96.381Z" fill="white"/>
<path d="M114.515 96.381H113.131V91.5373L115.197 89.4614H119.339V96.381H117.965V90.8453H115.889L114.515 92.2292V96.381Z" fill="white"/>
<path d="M121.611 92.9311H125.06V90.8453H122.985L121.611 92.2391V92.9311ZM121.611 96.381H120.227V91.5472L122.293 89.4614H126.434V96.381H125.06V94.315H121.611V96.381Z" fill="white"/>
<path fill-rule="evenodd" clip-rule="evenodd" d="M36.5073 0L40.9838 0.00790375L7.27387 41.6173H0L36.5073 0Z" fill="white"/>
<path fill-rule="evenodd" clip-rule="evenodd" d="M103.115 26.8322L96.8781 26.8361L97.5602 41.6173H104.781L103.115 26.8322Z" fill="white"/>
<path fill-rule="evenodd" clip-rule="evenodd" d="M101.356 11.2404L96.1585 11.2473L96.6201 21.256L102.485 21.251L101.356 11.2404Z" fill="white"/>
<path fill-rule="evenodd" clip-rule="evenodd" d="M100.101 0.0988512L95.6435 0.107744L95.9776 7.3318L100.915 7.32388L100.101 0.0988512Z" fill="white"/>
<path fill-rule="evenodd" clip-rule="evenodd" d="M91.0667 0.11566L86.6144 0.123564L82.9352 41.6173H90.1463L91.0667 0.11566Z" fill="white"/>
<path fill-rule="evenodd" clip-rule="evenodd" d="M148.136 0.203639L152.569 0.211543L188.015 41.6173H180.856L148.136 0.203639Z" fill="white"/>
</svg>
