<svg width="131" height="68" viewBox="0 0 131 68" fill="none" xmlns="http://www.w3.org/2000/svg">
<path fill-rule="evenodd" clip-rule="evenodd" d="M35.6083 37.813L45.0951 44.0978L41.4665 47.1937L35.6083 37.813Z" fill="#C03A23"/>
<path d="M4.93036 56.5929H0.0287707V32.0849H4.93036V41.9231H17.1493V32.0849H22.0159V56.5929H17.1493V46.8247H4.93036V56.5929Z" fill="black"/>
<path d="M55.5327 51.6913H67.7517V46.8247H55.5327V51.6913ZM55.5327 41.9231H67.7517V36.9865H55.5327V41.9231ZM70.2025 56.5929H50.6311V32.0849H70.2025L72.6183 34.5707V41.9231L70.2025 44.3739L72.6183 46.8247V54.1771L70.2025 56.5929Z" fill="black"/>
<path d="M81.0049 51.6913H93.2238V44.3739H81.0049V51.6913ZM95.6746 56.5929H76.1033V32.0849H81.0049V39.4723H95.6746L98.0904 41.9231V54.1771L95.6746 56.5929ZM105.443 56.5929H100.576V32.0849H105.443V56.5929Z" fill="black"/>
<path d="M113.862 56.5929H108.961V32.0849H113.862V41.9231H121.18L126.081 37.0215V32.0849H130.948V39.4723L126.081 44.3739L130.948 49.2755V56.5929H126.081V51.6913L121.18 46.8247H113.862V56.5929Z" fill="black"/>
<path d="M42.2714 44.3739V42.1865H47.1379V36.9865H42.2714H34.919L30.0524 41.9231H25.1508V44.3739H42.2714ZM30.0524 56.5929H25.1508V41.9231V39.4723L32.4682 32.0849H47.1379V56.5929H42.2714V49.2755H30.0524V56.5929Z" fill="black"/>
<path d="M43.8044 64.75H46.2081V63.2968H44.7618L43.8044 64.2679V64.75ZM43.8044 67.1538H42.8402V63.7858L44.2797 62.3325H47.1655V67.1538H46.2081V65.7143H43.8044V67.1538Z" fill="black"/>
<path d="M48.8169 66.1895H51.2207V65.2321H48.8169V66.1895ZM48.8169 64.2679H51.2207V63.2968H48.8169V64.2679ZM51.7028 67.1538H47.8527V62.3325H51.7028L52.178 62.8215V64.2679L51.7028 64.75L52.178 65.2321V66.6785L51.7028 67.1538Z" fill="black"/>
<path d="M55.3087 67.1538H54.3444V63.2968H52.657V62.3325H56.9823V63.2968H55.3087V67.1538Z" fill="black"/>
<path d="M58.4285 66.1895H60.8322V63.2968H58.4285V66.1895ZM61.3143 67.1538H57.9395L57.4642 66.6785V62.8215L57.9395 62.3325H61.3143L61.7896 62.8215V66.6785L61.3143 67.1538Z" fill="black"/>
<path d="M68.2469 67.1538H62.4752V62.3325H63.4394V66.1895H64.8789V62.3325H65.8431V66.1895H67.2895V62.3325H68.2469V67.1538Z" fill="black"/>
<path d="M69.9032 67.1538H68.9389V62.3325H69.9032V64.2679H71.3426L72.3069 63.3036V62.3325H73.2642V63.7858L72.3069 64.75L73.2642 65.7143V67.1538H72.3069V66.1895L71.3426 65.2321H69.9032V67.1538Z" fill="black"/>
<path d="M74.8468 66.1895H77.2505V63.2968H74.8468V66.1895ZM77.7327 67.1538H74.3578L73.8826 66.6785V62.8215L74.3578 62.3325H77.7327L78.2079 62.8215V66.6785L77.7327 67.1538Z" fill="black"/>
<path d="M79.7888 67.1538H78.8246V63.7789L80.2641 62.3325H83.1499V67.1538H82.1926V63.2968H80.7462L79.7888 64.261V67.1538Z" fill="black"/>
<path d="M84.7325 64.75H87.1362V63.2968H85.6899L84.7325 64.2679V64.75ZM84.7325 67.1538H83.7682V63.7858L85.2077 62.3325H88.0936V67.1538H87.1362V65.7143H84.7325V67.1538Z" fill="black"/>
<path fill-rule="evenodd" clip-rule="evenodd" d="M25.4366 0L28.5556 0.00550696L5.06809 28.997H0L25.4366 0Z" fill="black"/>
<path fill-rule="evenodd" clip-rule="evenodd" d="M71.8454 18.6954L67.5001 18.6981L67.9754 28.997H73.0067L71.8454 18.6954Z" fill="black"/>
<path fill-rule="evenodd" clip-rule="evenodd" d="M70.6202 7.83176L66.9987 7.83658L67.3204 14.8102L71.4067 14.8067L70.6202 7.83176Z" fill="black"/>
<path fill-rule="evenodd" clip-rule="evenodd" d="M69.7454 0.0688749L66.6399 0.0750712L66.8727 5.10845L70.313 5.10294L69.7454 0.0688749Z" fill="black"/>
<path fill-rule="evenodd" clip-rule="evenodd" d="M63.451 0.0805866L60.3488 0.0860936L57.7853 28.997H62.8097L63.451 0.0805866Z" fill="black"/>
<path fill-rule="evenodd" clip-rule="evenodd" d="M103.214 0.141886L106.303 0.147393L131 28.997H126.012L103.214 0.141886Z" fill="black"/>
</svg>
